<svg width="358" height="238" viewBox="0 0 358 238" fill="none" xmlns="http://www.w3.org/2000/svg">
<path d="M302.057 221.478C303.71 222.074 305.485 222.223 307.21 221.911C308.935 221.6 310.553 220.838 311.908 219.7C315.358 216.731 316.442 211.842 317.32 207.313L319.924 193.92L314.473 197.767C310.553 200.534 306.546 203.389 303.831 207.396C301.117 211.403 299.933 216.873 302.113 221.208" fill="#E6E6E6"/>
<path d="M302.523 237.693C301.971 233.574 301.404 229.403 301.791 225.24C302.135 221.543 303.235 217.932 305.476 214.971C306.665 213.403 308.112 212.059 309.752 211C310.18 210.724 310.573 211.418 310.147 211.693C307.31 213.531 305.115 216.245 303.88 219.443C302.515 223 302.296 226.878 302.533 230.657C302.676 232.942 302.977 235.211 303.281 237.479C303.305 237.582 303.29 237.69 303.24 237.782C303.189 237.874 303.105 237.942 303.007 237.973C302.907 238.001 302.8 237.987 302.71 237.934C302.619 237.882 302.553 237.795 302.525 237.693L302.523 237.693Z" fill="#F2F2F2"/>
<path d="M346.552 237.528C346.552 237.528 340.828 223.087 358 212.256L346.552 237.528Z" fill="#E6E6E6"/>
<path d="M339.512 237.266C339.512 237.266 337.766 226.973 324.251 227.061L339.512 237.266Z" fill="#E6E6E6"/>
<path d="M23.2027 110.885H149.042V19.9052H23.2027V110.885Z" fill="white"/>
<path d="M151.735 113.645H20.5096V17.1449H151.735V113.645ZM23.2027 110.885H149.042V19.9052H23.2027V110.885Z" fill="#E6E6E6"/>
<path d="M12.0643 102.524H11.1365V10.0608H136.98V11.0191H12.0643V102.524Z" fill="#3F3D56"/>
<path d="M0.928229 92.4632H0V0H125.843V0.95828H0.928229V92.4632Z" fill="#3F3D56"/>
<path d="M86.1225 93.182C100.986 93.182 113.035 80.7414 113.035 65.3951C113.035 50.0488 100.986 37.6082 86.1225 37.6082C71.2589 37.6082 59.2095 50.0488 59.2095 65.3951C59.2095 80.7414 71.2589 93.182 86.1225 93.182Z" fill="white"/>
<path d="M86.1225 93.642C71.0351 93.642 58.7606 80.9705 58.7606 65.3951C58.7606 49.8198 71.0351 37.1482 86.1225 37.1482C101.21 37.1482 113.484 49.8198 113.484 65.3951C113.484 80.9705 101.21 93.642 86.1225 93.642ZM86.1225 38.0683C71.5302 38.0683 59.6583 50.327 59.6583 65.3951C59.6583 80.4633 71.5302 92.7219 86.1225 92.7219C100.715 92.7219 112.587 80.4633 112.587 65.3951C112.587 50.327 100.715 38.0683 86.1225 38.0683V38.0683Z" fill="#3F3D56"/>
<path d="M78.6845 51.6091V79.66L101.015 65.4427L78.6845 51.6091Z" fill="#00B0FF"/>
<path d="M231.276 232.147H226.254L223.866 212.295H231.277L231.276 232.147Z" fill="#FFB7B7"/>
<path d="M232.557 237.136L216.365 237.135V236.925C216.365 235.212 217.029 233.569 218.211 232.358C219.393 231.147 220.996 230.466 222.667 230.466H222.668L232.557 230.466L232.557 237.136Z" fill="#2F2E41"/>
<path d="M274.419 224.623L270.209 227.428L257.648 212.119L263.862 207.979L274.419 224.623Z" fill="#FFB7B7"/>
<path d="M278.146 228.09L264.571 237.136L264.459 236.96C263.548 235.524 263.231 233.775 263.578 232.099C263.925 230.424 264.906 228.957 266.308 228.024L266.308 228.023L274.599 222.499L278.146 228.09Z" fill="#2F2E41"/>
<path d="M244.107 44.7638C246.663 44.7638 248.734 42.6406 248.734 40.0215C248.734 37.4024 246.663 35.2791 244.107 35.2791C241.552 35.2791 239.48 37.4024 239.48 40.0215C239.48 42.6406 241.552 44.7638 244.107 44.7638Z" fill="#2F2E41"/>
<path d="M239.74 41.7463C239.257 41.0913 238.949 40.3191 238.845 39.5054C238.741 38.6916 238.844 37.8641 239.146 37.1037C239.447 36.3433 239.936 35.6761 240.564 35.1672C241.192 34.6584 241.938 34.3253 242.73 34.2006C242.088 34.1825 241.449 34.3017 240.854 34.5507C240.259 34.7996 239.721 35.1729 239.275 35.6466C238.829 36.1203 238.484 36.6842 238.262 37.3021C238.04 37.9201 237.946 38.5787 237.986 39.236C238.026 39.8932 238.199 40.5347 238.495 41.1196C238.79 41.7044 239.201 42.2197 239.701 42.6328C240.202 43.0458 240.781 43.3475 241.401 43.5185C242.022 43.6896 242.67 43.7263 243.305 43.6263C242.611 43.6079 241.93 43.4293 241.313 43.1038C240.695 42.7783 240.158 42.3143 239.74 41.7463V41.7463Z" fill="#2F2E41"/>
<path d="M239.314 70.7326C246.82 70.7326 252.906 64.4957 252.906 56.802C252.906 49.1084 246.82 42.8714 239.314 42.8714C231.807 42.8714 225.722 49.1084 225.722 56.802C225.722 64.4957 231.807 70.7326 239.314 70.7326Z" fill="#2F2E41"/>
<path d="M226.649 51.7275C228.12 48.4447 230.778 45.8762 234.062 44.5638C237.345 43.2515 240.998 43.2981 244.249 44.6938C244.112 44.6235 243.975 44.552 243.835 44.4859C240.559 42.9443 236.82 42.7997 233.44 44.0839C230.06 45.368 227.316 47.9758 225.812 51.3334C224.308 54.691 224.167 58.5236 225.42 61.9878C226.673 65.4521 229.217 68.2644 232.493 69.8059C232.633 69.872 232.775 69.9313 232.916 69.9921C229.765 68.375 227.349 65.5662 226.18 62.1584C225.011 58.7506 225.179 55.0105 226.649 51.7275V51.7275Z" fill="#2F2E41"/>
<path d="M255.805 129.903L265.546 181.693L278.331 220.379L257.632 224.747L237.541 147.374L236.932 221.628L210.754 222.251L216.843 177.949L224.234 127.933L255.805 129.903Z" fill="#2F2E41"/>
<path d="M239.357 70.6364C244.4 70.6364 248.488 66.446 248.488 61.2768C248.488 56.1076 244.4 51.9171 239.357 51.9171C234.313 51.9171 230.225 56.1076 230.225 61.2768C230.225 66.446 234.313 70.6364 239.357 70.6364Z" fill="#FFB8B8"/>
<path d="M247.891 75.2571L233.889 75.6167L224.148 80.6086L225.366 109.311L223.005 131.291C223.005 131.291 222.122 134.736 228.21 137.856C230.159 138.855 232.668 139.278 235.18 139.392C240.324 139.563 245.37 137.927 249.483 134.756C250.76 133.797 252.174 133.156 253.37 133.647C256.414 134.895 257.023 131.151 257.023 131.151L253.37 113.055L258.849 95.8484L253.315 77.3768L247.891 75.2571Z" fill="#00B0FF"/>
<path d="M230.927 51.4904V61.9114H233.282L236.278 58.6207L235.877 61.9114H246.285L245.643 58.6207L246.927 61.9114H248.586V51.4904H230.927Z" fill="#2F2E41"/>
<path d="M250.414 58.6813C250.388 58.3991 250.26 58.137 250.055 57.9462C249.851 57.7553 249.584 57.6492 249.308 57.6487H248.19V65.1984H249.308C249.584 65.1978 249.851 65.0918 250.055 64.9009C250.26 64.71 250.388 64.448 250.414 64.1658C250.971 64.012 251.463 63.6745 251.814 63.2054C252.165 62.7363 252.355 62.1617 252.356 61.5705V61.2766C252.355 60.6854 252.165 60.1108 251.814 59.6417C251.463 59.1726 250.971 58.835 250.414 58.6813Z" fill="#00B0FF"/>
<path d="M230.218 64.2612H228.983C228.638 64.2612 228.296 64.1916 227.978 64.0564C227.659 63.9211 227.37 63.7229 227.126 63.4731C226.883 63.2232 226.689 62.9266 226.557 62.6002C226.425 62.2737 226.357 61.9239 226.357 61.5705V61.2766C226.357 60.9232 226.425 60.5733 226.557 60.2469C226.689 59.9204 226.883 59.6238 227.126 59.374C227.37 59.1241 227.659 58.9259 227.978 58.7907C228.296 58.6555 228.638 58.5859 228.983 58.5859H230.218V64.2612V64.2612Z" fill="#00B0FF"/>
<path d="M230.523 65.1984H229.405C229.109 65.1984 228.825 65.0777 228.615 64.8629C228.406 64.6481 228.288 64.3567 228.288 64.0529V64.0529V58.7942C228.288 58.4904 228.406 58.199 228.615 57.9842C228.825 57.7694 229.109 57.6487 229.405 57.6487H230.523V65.1984V65.1984Z" fill="#00B0FF"/>
<path d="M249.816 58.9809H248.997C248.997 53.051 244.71 48.2268 239.441 48.2268C234.171 48.2268 229.884 53.051 229.884 58.9809H229.065C229.065 52.5882 233.72 47.3872 239.441 47.3872C245.162 47.3872 249.816 52.5882 249.816 58.9809Z" fill="#00B0FF"/>
<path d="M216.443 146.463C216.936 146.187 217.364 145.804 217.696 145.341C218.029 144.877 218.259 144.344 218.369 143.78C218.479 143.216 218.467 142.634 218.334 142.074C218.201 141.515 217.95 140.993 217.598 140.544L221.817 132.655L217.765 128.859L211.96 140.085C211.264 140.74 210.826 141.634 210.729 142.598C210.633 143.562 210.885 144.529 211.438 145.315C211.99 146.101 212.805 146.652 213.727 146.864C214.65 147.075 215.616 146.933 216.443 146.463V146.463Z" fill="#FFB7B7"/>
<path d="M227.192 80.6086L225.553 79.7856C225.553 79.7856 221.713 80.6085 220.495 83.1044C219.278 85.6003 216.234 111.183 216.234 111.183L213.798 128.031C213.798 128.031 211.972 128.031 211.972 129.903C211.972 131.775 209.537 136.766 211.363 136.766C213.19 136.766 220.495 136.766 221.713 135.519C222.93 134.271 225.366 129.279 224.757 128.655C224.148 128.031 222.93 128.031 222.93 128.031L224.643 111.14L227.192 80.6086Z" fill="#00B0FF"/>
<path d="M259.911 140.599C259.502 140.204 259.183 139.723 258.975 139.188C258.768 138.653 258.677 138.078 258.71 137.504C258.743 136.929 258.898 136.369 259.165 135.863C259.432 135.356 259.804 134.916 260.255 134.573L258.121 125.847L262.979 123.225L265.822 135.591C266.335 136.405 266.538 137.384 266.393 138.342C266.248 139.299 265.766 140.169 265.037 140.786C264.308 141.403 263.384 141.725 262.439 141.691C261.494 141.656 260.595 141.268 259.911 140.599V140.599Z" fill="#FFB7B7"/>
<path d="M253.801 105.62L255.514 122.51C255.514 122.51 254.296 122.51 253.688 123.134C253.079 123.758 255.514 128.75 256.732 129.998C257.949 131.246 265.255 131.246 267.081 131.246C268.907 131.246 266.472 126.254 266.472 124.382C266.472 122.51 264.646 122.51 264.646 122.51L262.211 105.663C262.211 105.663 259.167 82.8401 257.949 80.3441C256.732 77.8482 252.891 77.0253 252.891 77.0253L251.252 77.8483L253.801 105.62Z" fill="#00B0FF"/>
<path d="M220.413 140.783L220.334 140.835L218.969 138.628C218.865 138.461 218.73 138.315 218.571 138.201C218.413 138.087 218.234 138.006 218.045 137.963C217.856 137.919 217.66 137.914 217.469 137.949C217.278 137.983 217.096 138.055 216.932 138.161L212.371 141.127C212.041 141.342 211.807 141.683 211.722 142.074C211.637 142.465 211.706 142.876 211.916 143.214V143.214L219.409 155.319C219.513 155.487 219.648 155.632 219.806 155.746C219.965 155.86 220.144 155.941 220.333 155.984C220.522 156.028 220.717 156.033 220.908 155.998C221.099 155.964 221.282 155.892 221.445 155.786L226.006 152.82C226.336 152.605 226.57 152.264 226.655 151.873C226.741 151.482 226.671 151.071 226.461 150.733L221.307 142.405L221.385 142.354L220.413 140.783Z" fill="#3F3D56"/>
<path d="M218.709 138.81L226.191 150.896C226.347 151.149 226.399 151.455 226.336 151.748C226.272 152.04 226.097 152.294 225.851 152.455L221.268 155.435C221.021 155.595 220.722 155.649 220.437 155.583C220.152 155.518 219.904 155.339 219.747 155.086L212.265 143C212.109 142.747 212.057 142.44 212.12 142.148C212.184 141.856 212.359 141.601 212.605 141.441L213.161 141.079C213.177 141.166 213.212 141.247 213.266 141.316C213.319 141.385 213.388 141.44 213.466 141.475C213.545 141.511 213.631 141.526 213.716 141.519C213.802 141.513 213.885 141.484 213.957 141.437L216.57 139.738C216.642 139.691 216.702 139.626 216.745 139.55C216.787 139.473 216.81 139.387 216.813 139.299C216.815 139.211 216.796 139.124 216.758 139.046C216.719 138.967 216.663 138.899 216.593 138.848L217.188 138.461C217.435 138.3 217.734 138.247 218.019 138.312C218.304 138.378 218.552 138.557 218.709 138.81V138.81Z" fill="#00B0FF"/>
<path d="M354.27 238H183.257C183.138 238 183.024 237.952 182.939 237.865C182.855 237.779 182.808 237.662 182.808 237.54C182.808 237.418 182.855 237.301 182.939 237.215C183.024 237.128 183.138 237.08 183.257 237.08H354.27C354.389 237.08 354.503 237.128 354.587 237.215C354.672 237.301 354.719 237.418 354.719 237.54C354.719 237.662 354.672 237.779 354.587 237.865C354.503 237.952 354.389 238 354.27 238Z" fill="#CBCBCB"/>
</svg>
