<svg width="367" height="393" viewBox="0 0 367 393" fill="none" xmlns="http://www.w3.org/2000/svg">
<path d="M273.731 93.229H271.742V34.1775C271.742 29.6892 270.927 25.2449 269.342 21.0983C267.758 16.9517 265.435 13.184 262.507 10.0104C259.58 6.83669 256.104 4.31919 252.279 2.60161C248.453 0.884033 244.353 4.24751e-06 240.213 0H124.799C116.437 -2.00154e-05 108.417 3.60078 102.504 10.0103C96.5912 16.4198 93.2694 25.1129 93.2694 34.1773V358.139C93.2694 367.203 96.5912 375.896 102.504 382.306C108.417 388.715 116.436 392.316 124.798 392.316H240.213C248.575 392.316 256.594 388.715 262.507 382.306C268.42 375.896 271.742 367.203 271.742 358.139V135.263H273.731L273.731 93.229Z" fill="#E6E6E6"/>
<path d="M265.031 34.4159V357.901C265.031 364.67 262.55 371.162 258.134 375.949C253.719 380.736 247.729 383.425 241.485 383.425H125.517C119.272 383.425 113.282 380.736 108.867 375.949C104.451 371.162 101.97 364.67 101.97 357.901V34.4159C101.97 27.6464 104.451 21.1543 108.867 16.3675C113.282 11.5808 119.272 8.89155 125.517 8.89142H139.585C138.894 10.7328 138.63 12.7302 138.818 14.7078C139.006 16.6853 139.64 18.5826 140.663 20.2325C141.686 21.8825 143.067 23.2346 144.686 24.17C146.304 25.1054 148.109 25.5954 149.943 25.5969H216.063C217.897 25.5954 219.703 25.1054 221.321 24.17C222.939 23.2346 224.321 21.8825 225.344 20.2325C226.367 18.5825 227 16.6853 227.188 14.7078C227.376 12.7302 227.113 10.7328 226.422 8.89142H241.485C247.729 8.89154 253.719 11.5808 258.134 16.3675C262.55 21.1543 265.031 27.6464 265.031 34.4159V34.4159Z" fill="white"/>
<path d="M151.476 97.5912H133.667C132.2 97.5894 130.793 96.9568 129.756 95.8321C128.718 94.7074 128.134 93.1825 128.133 91.5919V72.2871C128.134 70.6966 128.718 69.1717 129.756 68.047C130.793 66.9223 132.2 66.2896 133.667 66.2878H151.476C152.944 66.2896 154.35 66.9223 155.388 68.047C156.425 69.1717 157.009 70.6966 157.011 72.2871V91.5919C157.009 93.1825 156.425 94.7074 155.388 95.8321C154.35 96.9568 152.944 97.5894 151.476 97.5912V97.5912Z" fill="#00B0FF"/>
<path d="M192.405 97.5912H174.596C173.129 97.5894 171.722 96.9568 170.684 95.8321C169.647 94.7074 169.063 93.1825 169.062 91.5919V72.2871C169.063 70.6966 169.647 69.1717 170.684 68.047C171.722 66.9223 173.129 66.2896 174.596 66.2878H192.405C193.872 66.2896 195.279 66.9223 196.317 68.047C197.354 69.1717 197.938 70.6966 197.939 72.2871V91.5919C197.938 93.1825 197.354 94.7074 196.317 95.8321C195.279 96.9568 193.872 97.5894 192.405 97.5912Z" fill="#00B0FF"/>
<path d="M233.334 97.5912H215.525C214.058 97.5894 212.651 96.9568 211.613 95.8321C210.576 94.7074 209.992 93.1825 209.99 91.5919V72.2871C209.992 70.6966 210.576 69.1717 211.613 68.047C212.651 66.9223 214.058 66.2896 215.525 66.2878H233.334C234.801 66.2896 236.208 66.9223 237.245 68.047C238.283 69.1717 238.867 70.6966 238.868 72.2871V91.5919C238.867 93.1825 238.283 94.7074 237.245 95.8321C236.208 96.9568 234.801 97.5894 233.334 97.5912Z" fill="#E6E6E6"/>
<path d="M151.476 146.92H133.667C132.2 146.918 130.793 146.286 129.756 145.161C128.718 144.036 128.134 142.511 128.133 140.921V121.616C128.134 120.025 128.718 118.5 129.756 117.376C130.793 116.251 132.2 115.618 133.667 115.617H151.476C152.944 115.618 154.35 116.251 155.388 117.376C156.425 118.5 157.009 120.025 157.011 121.616V140.921C157.009 142.511 156.425 144.036 155.388 145.161C154.35 146.285 152.944 146.918 151.476 146.92V146.92Z" fill="#E6E6E6"/>
<path d="M192.405 146.92H174.596C173.129 146.918 171.722 146.286 170.684 145.161C169.647 144.036 169.063 142.511 169.062 140.921V121.616C169.063 120.025 169.647 118.5 170.684 117.376C171.722 116.251 173.129 115.618 174.596 115.617H192.405C193.872 115.618 195.279 116.251 196.317 117.376C197.354 118.5 197.938 120.025 197.939 121.616V140.921C197.938 142.511 197.354 144.036 196.317 145.161C195.279 146.285 193.872 146.918 192.405 146.92V146.92Z" fill="#E6E6E6"/>
<path d="M233.334 146.92H215.525C214.058 146.918 212.651 146.286 211.613 145.161C210.576 144.036 209.992 142.511 209.99 140.921V121.616C209.992 120.025 210.576 118.5 211.613 117.376C212.651 116.251 214.058 115.618 215.525 115.617H233.334C234.801 115.618 236.208 116.251 237.245 117.376C238.283 118.5 238.867 120.025 238.868 121.616V140.921C238.867 142.511 238.283 144.036 237.245 145.161C236.208 146.285 234.801 146.918 233.334 146.92Z" fill="#E6E6E6"/>
<path d="M151.476 196.239H133.667C132.2 196.237 130.793 195.605 129.756 194.48C128.718 193.355 128.134 191.83 128.133 190.24V170.935C128.134 169.345 128.718 167.82 129.756 166.695C130.793 165.57 132.2 164.938 133.667 164.936H151.476C152.944 164.938 154.35 165.57 155.388 166.695C156.425 167.82 157.009 169.345 157.011 170.935V190.24C157.009 191.83 156.425 193.355 155.388 194.48C154.35 195.605 152.944 196.237 151.476 196.239V196.239Z" fill="#E6E6E6"/>
<path d="M192.405 196.239H174.596C173.129 196.237 171.722 195.605 170.684 194.48C169.647 193.355 169.063 191.83 169.062 190.24V170.935C169.063 169.345 169.647 167.82 170.684 166.695C171.722 165.57 173.129 164.938 174.596 164.936H192.405C193.872 164.938 195.279 165.57 196.317 166.695C197.354 167.82 197.938 169.345 197.939 170.935V190.24C197.938 191.83 197.354 193.355 196.317 194.48C195.279 195.605 193.872 196.237 192.405 196.239V196.239Z" fill="#E6E6E6"/>
<path d="M233.334 196.239H215.525C214.058 196.237 212.651 195.605 211.613 194.48C210.576 193.355 209.992 191.83 209.99 190.24V170.935C209.992 169.345 210.576 167.82 211.613 166.695C212.651 165.57 214.058 164.938 215.525 164.936H233.334C234.801 164.938 236.208 165.57 237.245 166.695C238.283 167.82 238.867 169.345 238.868 170.935V190.24C238.867 191.83 238.283 193.355 237.245 194.48C236.208 195.605 234.801 196.237 233.334 196.239Z" fill="#E6E6E6"/>
<path d="M151.476 245.568H133.667C132.2 245.566 130.793 244.934 129.756 243.809C128.718 242.684 128.134 241.159 128.133 239.569V220.264C128.134 218.673 128.718 217.148 129.756 216.024C130.793 214.899 132.2 214.266 133.667 214.265H151.476C152.944 214.266 154.35 214.899 155.388 216.024C156.425 217.148 157.009 218.673 157.011 220.264V239.569C157.009 241.159 156.425 242.684 155.388 243.809C154.35 244.934 152.944 245.566 151.476 245.568V245.568Z" fill="#E6E6E6"/>
<path d="M192.405 245.568H174.596C173.129 245.566 171.722 244.934 170.684 243.809C169.647 242.684 169.063 241.159 169.062 239.569V220.264C169.063 218.673 169.647 217.148 170.684 216.024C171.722 214.899 173.129 214.266 174.596 214.265H192.405C193.872 214.266 195.279 214.899 196.317 216.024C197.354 217.148 197.938 218.673 197.939 220.264V239.569C197.938 241.159 197.354 242.684 196.317 243.809C195.279 244.934 193.872 245.566 192.405 245.568V245.568Z" fill="#E6E6E6"/>
<path d="M233.334 245.568H215.525C214.058 245.566 212.651 244.934 211.613 243.809C210.576 242.684 209.992 241.159 209.99 239.569V220.264C209.992 218.673 210.576 217.148 211.613 216.024C212.651 214.899 214.058 214.266 215.525 214.265H233.334C234.801 214.266 236.208 214.899 237.245 216.024C238.283 217.148 238.867 218.673 238.868 220.264V239.569C238.867 241.159 238.283 242.684 237.245 243.809C236.208 244.934 234.801 245.566 233.334 245.568V245.568Z" fill="#E6E6E6"/>
<path d="M203.86 239.847H186.051C184.518 239.846 183.048 239.184 181.963 238.009C180.879 236.834 180.269 235.241 180.268 233.578V214.274C180.269 212.612 180.879 211.018 181.963 209.843C183.048 208.668 184.518 208.007 186.051 208.005H203.86C205.393 208.007 206.863 208.668 207.947 209.843C209.031 211.018 209.641 212.612 209.643 214.274V233.578C209.641 235.241 209.031 236.834 207.947 238.009C206.863 239.184 205.393 239.846 203.86 239.847V239.847Z" fill="#00B0FF"/>
<path d="M119.596 289.665C120.269 289.302 120.861 288.783 121.329 288.145C121.797 287.508 122.131 286.766 122.306 285.974C122.482 285.181 122.494 284.357 122.344 283.558C122.194 282.76 121.883 282.007 121.435 281.352L125.281 240.593H116.97L113.914 280.392C112.949 281.281 112.319 282.522 112.142 283.881C111.966 285.24 112.255 286.622 112.956 287.765C113.656 288.908 114.719 289.732 115.943 290.083C117.167 290.433 118.467 290.284 119.596 289.665V289.665Z" fill="#FFB8B8"/>
<path d="M127.227 218.099C133.721 218.099 138.986 212.393 138.986 205.353C138.986 198.314 133.721 192.607 127.227 192.607C120.733 192.607 115.469 198.314 115.469 205.353C115.469 212.393 120.733 218.099 127.227 218.099Z" fill="#FFB8B8"/>
<path d="M129.441 264.33C128.97 264.33 128.513 264.162 128.138 263.853C127.764 263.544 127.493 263.11 127.368 262.618C126.426 258.908 123.975 252.635 120.084 243.972C119.206 242.014 118.719 239.877 118.657 237.7C118.594 235.524 118.957 233.358 119.721 231.344C120.485 229.331 121.633 227.515 123.09 226.016C124.547 224.518 126.28 223.37 128.175 222.648V222.648C129.971 221.961 131.875 221.671 133.776 221.795C135.677 221.92 137.536 222.457 139.242 223.373C140.949 224.29 142.468 225.569 143.71 227.134C144.953 228.698 145.893 230.517 146.476 232.482C149.492 242.734 149.347 253.715 149.144 257.96C149.119 258.471 148.94 258.959 148.634 259.35C148.328 259.74 147.913 260.011 147.452 260.121L129.903 264.276C129.751 264.312 129.596 264.33 129.441 264.33V264.33Z" fill="#CCCCCC"/>
<path d="M146.435 385.366L152.305 385.365L155.097 360.825L146.434 360.825L146.435 385.366Z" fill="#FFB8B8"/>
<path d="M163.624 391.272L145.178 391.273L145.177 383.548L156.497 383.547C157.433 383.547 158.359 383.747 159.224 384.135C160.089 384.523 160.875 385.092 161.536 385.81C162.198 386.527 162.723 387.379 163.081 388.316C163.44 389.253 163.624 390.258 163.624 391.272V391.272Z" fill="#2F2E41"/>
<path d="M87.7453 377.12L92.8888 380.185L106.243 360.139L98.6519 355.615L87.7453 377.12Z" fill="#FFB8B8"/>
<path d="M100.182 391.273L84.0176 381.64L87.4511 374.87L97.3703 380.781C99.0266 381.769 100.253 383.428 100.781 385.396C101.308 387.364 101.093 389.478 100.182 391.273V391.273V391.273Z" fill="#2F2E41"/>
<path d="M146.161 371.744C145.638 371.744 145.133 371.537 144.74 371.163C144.347 370.788 144.094 370.272 144.027 369.709L136.686 308.396C136.654 308.124 136.543 307.871 136.37 307.672C136.197 307.473 135.97 307.339 135.723 307.288C135.475 307.237 135.218 307.272 134.99 307.388C134.762 307.505 134.573 307.696 134.451 307.936L103.86 368.099C103.608 368.59 103.201 368.967 102.714 369.161C102.227 369.354 101.692 369.352 101.207 369.155L94.5388 366.401C94.2706 366.29 94.0255 366.122 93.818 365.907C93.6104 365.693 93.4445 365.435 93.3301 365.15C93.2156 364.864 93.155 364.557 93.1516 364.246C93.1482 363.935 93.2022 363.626 93.3104 363.338L114.502 306.908C114.555 306.765 114.592 306.615 114.61 306.461C117.48 282.38 124.783 270.134 126.953 266.954C127.111 266.72 127.215 266.449 127.257 266.162C127.298 265.876 127.275 265.582 127.19 265.308L126.892 264.338C126.773 263.953 126.748 263.541 126.821 263.142C126.894 262.744 127.061 262.373 127.306 262.066C135.125 252.413 148.752 257.68 148.889 257.735L148.957 257.762L149 257.825C164.28 280.541 158.631 354.322 157.343 368.882C157.295 369.429 157.07 369.94 156.708 370.325C156.345 370.709 155.869 370.943 155.364 370.984L146.328 371.738C146.272 371.742 146.216 371.744 146.161 371.744Z" fill="#2F2E41"/>
<path d="M172.94 220.159C172.881 220.439 172.843 220.724 172.825 221.01L152.259 233.871L147.261 230.752L141.932 238.314L150.286 244.769C150.961 245.29 151.774 245.56 152.602 245.538C153.431 245.516 154.23 245.204 154.881 244.647L176.088 226.512C177.045 226.896 178.087 226.955 179.076 226.681C180.065 226.408 180.953 225.814 181.623 224.979C182.293 224.145 182.713 223.109 182.826 222.01C182.94 220.911 182.742 219.8 182.259 218.825C181.777 217.851 181.031 217.059 180.123 216.554C179.215 216.05 178.186 215.858 177.174 216.002C176.163 216.147 175.216 216.623 174.459 217.365C173.703 218.108 173.173 219.082 172.94 220.159V220.159Z" fill="#FFB8B8"/>
<path d="M151.572 234.48L144.925 243.818C144.736 244.084 144.496 244.302 144.222 244.459C143.948 244.615 143.647 244.705 143.337 244.723C143.028 244.742 142.719 244.688 142.431 244.565C142.143 244.442 141.883 244.253 141.668 244.012L134.143 235.542C132.895 234.485 132.085 232.935 131.889 231.231C131.694 229.528 132.129 227.81 133.1 226.454C134.071 225.098 135.499 224.214 137.07 223.997C138.641 223.78 140.227 224.247 141.481 225.295L150.918 231.016C151.188 231.18 151.423 231.405 151.606 231.676C151.788 231.946 151.915 232.257 151.977 232.586C152.039 232.914 152.035 233.254 151.965 233.581C151.895 233.908 151.761 234.215 151.572 234.48V234.48Z" fill="#CCCCCC"/>
<path d="M125.81 250.704L115.103 248.608C114.798 248.548 114.509 248.418 114.255 248.227C114.001 248.035 113.788 247.786 113.63 247.497C113.473 247.208 113.375 246.886 113.343 246.552C113.311 246.218 113.345 245.881 113.444 245.563L116.915 234.422C117.206 232.734 118.102 231.24 119.407 230.267C120.712 229.294 122.32 228.922 123.878 229.232C125.435 229.542 126.816 230.509 127.718 231.921C128.619 233.333 128.967 235.075 128.685 236.765L128.346 248.48C128.336 248.815 128.26 249.144 128.122 249.445C127.984 249.745 127.789 250.01 127.548 250.221C127.307 250.432 127.027 250.585 126.728 250.668C126.428 250.751 126.115 250.764 125.81 250.704H125.81Z" fill="#CCCCCC"/>
<path d="M129.088 202.421C132.11 204.664 136.079 206.968 139.165 204.581C140.131 203.784 140.832 202.669 141.165 201.404C141.497 200.139 141.442 198.791 141.009 197.562C139.531 192.98 135.47 190.963 131.587 189.417C126.539 187.407 121.042 185.808 115.831 187.248C110.62 188.687 106.014 194.156 106.955 199.896C107.711 204.512 111.728 208.352 111.158 213C110.584 217.676 105.732 220.138 101.448 220.974C97.1643 221.81 92.3708 222.079 89.2923 225.414C85.3651 229.669 86.3458 237.274 90.0411 241.766C93.7364 246.258 99.3129 248.295 104.716 249.679C111.876 251.513 119.619 252.477 126.419 249.433C133.218 246.389 138.51 238.195 136.54 230.512C135.708 227.266 133.748 224.524 131.854 221.853C129.96 219.183 128.042 216.391 127.319 213.115C126.717 210.385 127.163 207.215 128.833 205.167C129.137 204.809 129.328 204.355 129.379 203.871C129.43 203.388 129.338 202.899 129.117 202.475L129.088 202.421Z" fill="#2F2E41"/>
<path d="M248.645 386.215H242.548L239.648 360.724H248.646L248.645 386.215Z" fill="#FFB8B8"/>
<path d="M238.194 384.326H249.951V392.351H230.79C230.79 391.297 230.982 390.254 231.354 389.28C231.726 388.306 232.271 387.422 232.959 386.676C233.646 385.931 234.462 385.34 235.361 384.937C236.259 384.534 237.221 384.326 238.194 384.326Z" fill="#2F2E41"/>
<path d="M271.52 386.215H265.424L262.523 360.724H271.521L271.52 386.215Z" fill="#FFB8B8"/>
<path d="M261.069 384.326H272.827V392.351H253.666C253.666 391.297 253.857 390.254 254.229 389.28C254.601 388.306 255.147 387.422 255.834 386.676C256.522 385.931 257.338 385.34 258.236 384.937C259.134 384.534 260.097 384.326 261.069 384.326V384.326Z" fill="#2F2E41"/>
<path d="M270.776 310.294C270.119 309.836 269.563 309.228 269.146 308.511C268.73 307.795 268.463 306.989 268.366 306.149C268.268 305.309 268.341 304.456 268.58 303.65C268.82 302.844 269.219 302.105 269.75 301.484L265.736 239.731L277.299 240.946L277.617 301.422C278.519 302.458 279.04 303.818 279.079 305.243C279.119 306.667 278.675 308.058 277.832 309.152C276.989 310.246 275.805 310.966 274.504 311.176C273.204 311.387 271.877 311.073 270.776 310.294H270.776Z" fill="#FFB8B8"/>
<path d="M248.357 373.373L241.645 373.026C241.074 372.996 240.534 372.731 240.138 372.283C239.741 371.836 239.518 371.24 239.514 370.62L239.046 297.008C239.044 296.658 239.111 296.313 239.243 295.994C239.376 295.675 239.57 295.392 239.813 295.162C240.056 294.932 240.342 294.762 240.652 294.664C240.961 294.565 241.286 294.54 241.605 294.59L268.456 298.815C268.986 298.895 269.472 299.181 269.824 299.619C270.176 300.056 270.371 300.617 270.372 301.198L273.825 369.407C273.827 369.727 273.771 370.045 273.66 370.341C273.548 370.637 273.384 370.907 273.176 371.134C272.968 371.361 272.72 371.542 272.448 371.665C272.175 371.788 271.883 371.851 271.587 371.851H264.352C263.818 371.854 263.301 371.648 262.895 371.272C262.49 370.896 262.222 370.374 262.141 369.802L257.677 339.04C257.612 338.59 257.398 338.18 257.077 337.887C256.755 337.594 256.346 337.438 255.925 337.446C255.505 337.455 255.102 337.628 254.79 337.933C254.478 338.239 254.279 338.656 254.229 339.109L250.686 371.238C250.619 371.827 250.356 372.368 249.947 372.762C249.538 373.156 249.01 373.374 248.463 373.376C248.428 373.376 248.393 373.375 248.357 373.373Z" fill="#2F2E41"/>
<path d="M253.082 301.201C247.164 297.637 242.541 296.7 240.311 296.459C240.015 296.428 239.728 296.332 239.467 296.177C239.206 296.022 238.977 295.811 238.793 295.557C238.605 295.302 238.468 295.007 238.388 294.692C238.308 294.377 238.289 294.048 238.33 293.724L244.764 241.947C245.134 238.918 246.213 236.042 247.899 233.592C249.584 231.143 251.82 229.202 254.393 227.954C256.884 226.713 259.626 226.184 262.358 226.416C265.091 226.648 267.724 227.634 270.006 229.281C270.226 229.44 270.442 229.602 270.655 229.768C273.282 231.855 275.281 234.739 276.4 238.055C277.518 241.372 277.705 244.973 276.939 248.405C272.993 265.9 271.638 294.582 271.407 300.154C271.388 300.629 271.241 301.088 270.983 301.472C270.724 301.856 270.367 302.149 269.955 302.313C267.528 303.269 264.966 303.764 262.384 303.774C259.131 303.796 255.927 302.909 253.082 301.201V301.201Z" fill="#00B0FF"/>
<path d="M268.353 260.481C268.083 260.27 267.859 259.995 267.699 259.678C267.539 259.361 267.447 259.009 267.429 258.648L266.582 242.004C266.498 240.355 266.98 238.73 267.936 237.444C268.891 236.158 270.252 235.3 271.756 235.037C273.261 234.774 274.801 235.124 276.081 236.02C277.361 236.915 278.29 238.293 278.689 239.887L282.411 254.767C282.566 255.388 282.487 256.05 282.192 256.608C281.897 257.166 281.409 257.574 280.837 257.743L270.249 260.855C269.928 260.95 269.59 260.966 269.262 260.902C268.934 260.837 268.624 260.693 268.353 260.481Z" fill="#00B0FF"/>
<path d="M258.463 220.924C265.209 220.924 270.677 214.996 270.677 207.684C270.677 200.372 265.209 194.444 258.463 194.444C251.718 194.444 246.249 200.372 246.249 207.684C246.249 214.996 251.718 220.924 258.463 220.924Z" fill="#FFB8B8"/>
<path d="M214.203 233.696C214.264 233.987 214.303 234.283 214.322 234.58L235.684 247.939L240.876 244.699L246.412 252.554L235.304 261.137L210.933 240.295C209.939 240.694 208.856 240.755 207.829 240.471C206.802 240.186 205.88 239.57 205.184 238.703C204.488 237.836 204.052 236.761 203.934 235.619C203.816 234.477 204.022 233.324 204.523 232.311C205.025 231.299 205.799 230.477 206.742 229.953C207.685 229.429 208.753 229.229 209.804 229.38C210.855 229.53 211.839 230.024 212.624 230.795C213.41 231.566 213.961 232.578 214.203 233.696V233.696Z" fill="#FFB8B8"/>
<path d="M236.447 246.803C236.411 246.444 236.451 246.08 236.562 245.739C236.673 245.399 236.854 245.089 237.09 244.834L247.962 233.046C249.04 231.878 250.478 231.184 251.999 231.097C253.521 231.01 255.018 231.537 256.202 232.576C257.386 233.616 258.173 235.093 258.412 236.724C258.651 238.355 258.324 240.024 257.495 241.41L249.752 254.343C249.428 254.882 248.921 255.26 248.34 255.394C247.76 255.528 247.154 255.407 246.656 255.057L237.454 248.584C237.174 248.388 236.938 248.126 236.764 247.818C236.59 247.51 236.481 247.163 236.447 246.803Z" fill="#00B0FF"/>
<path d="M267.106 218.159C264.828 220.79 260.596 219.378 260.299 215.783C260.276 215.504 260.278 215.223 260.304 214.945C260.458 213.352 261.306 211.907 261.103 210.226C261.057 209.807 260.913 209.409 260.685 209.067C258.869 206.432 254.607 210.246 252.894 207.86C251.843 206.397 253.078 204.094 252.272 202.459C251.207 200.301 248.055 201.365 246.078 200.183C243.879 198.868 244.011 195.21 245.458 192.985C247.224 190.272 250.32 188.824 253.377 188.615C256.434 188.407 259.47 189.303 262.324 190.508C265.567 191.878 268.783 193.771 270.779 196.862C273.205 200.621 273.439 205.675 272.225 210.07C271.487 212.744 268.967 216.01 267.106 218.159Z" fill="#2F2E41"/>
<path d="M366.503 393H0.49729C0.3654 393 0.238912 392.943 0.145652 392.842C0.0523925 392.741 0 392.604 0 392.461C0 392.318 0.0523925 392.181 0.145652 392.08C0.238912 391.979 0.3654 391.922 0.49729 391.922H366.503C366.635 391.922 366.761 391.979 366.854 392.08C366.948 392.181 367 392.318 367 392.461C367 392.604 366.948 392.741 366.854 392.842C366.761 392.943 366.635 393 366.503 393Z" fill="#CCCCCC"/>
</svg>
