<svg width="371" height="218" viewBox="0 0 371 218" fill="none" xmlns="http://www.w3.org/2000/svg">
<g clip-path="url(#clip0)">
<path d="M6.39877 83.7182H128.423C130.012 83.7182 131.535 84.3612 132.659 85.5058C133.782 86.6504 134.413 88.2028 134.413 89.8215V99.516H0.408752V89.8215C0.408754 88.2028 1.03984 86.6504 2.16319 85.5058C3.28653 84.3612 4.81012 83.7182 6.39877 83.7182V83.7182Z" fill="#3F3D56"/>
<path d="M126.107 82.5898C125.504 82.5925 124.906 82.6963 124.336 82.897C124.141 82.0958 123.664 81.3951 122.996 80.9274C122.328 80.4597 121.516 80.2573 120.712 80.3583C119.907 80.4594 119.167 80.857 118.631 81.476C118.095 82.0949 117.8 82.8926 117.801 83.7182C117.801 83.7351 117.805 83.7507 117.805 83.7675C117.39 83.8076 116.98 83.8941 116.584 84.0254C116.471 83.5698 116.267 83.1429 115.984 82.7718C115.702 82.4006 115.346 82.0932 114.941 81.869C116.006 81.2694 116.848 80.3304 117.338 79.1962C120.047 79.1513 122.231 77.1555 122.231 74.6908C122.231 72.198 120 70.1772 117.247 70.1772C116.644 70.1799 116.046 70.2837 115.476 70.4844C115.374 70.0406 115.185 69.6225 114.919 69.2554C114.654 68.8882 114.319 68.5796 113.933 68.3483C113.548 68.1169 113.12 67.9675 112.677 67.9091C112.233 67.8507 111.782 67.8845 111.352 68.0085C110.921 68.1325 110.52 68.3441 110.172 68.6305C109.824 68.917 109.536 69.2723 109.327 69.6751C109.117 70.0778 108.99 70.5197 108.952 70.974C108.915 71.4282 108.968 71.8855 109.109 72.3182C108.977 72.412 108.853 72.5175 108.73 72.6224C108.103 72.073 107.29 71.7971 106.465 71.8543C106.039 70.6081 105.196 69.5544 104.085 68.8777C102.973 68.201 101.663 67.9445 100.384 68.1532C99.1051 68.3618 97.9392 69.0223 97.0903 70.0189C96.2415 71.0155 95.7639 72.2847 95.7412 73.6041C95.2968 73.6399 94.8581 73.7291 94.4342 73.8697C94.3866 73.6787 94.3227 73.4924 94.2432 73.3127C94.6804 72.9198 95.0317 72.4376 95.2743 71.8974C95.5169 71.3572 95.6454 70.7712 95.6515 70.1772C95.6515 67.6843 93.4203 65.6635 90.6679 65.6635C90.065 65.6662 89.4667 65.77 88.8969 65.9707C88.7946 65.5269 88.6052 65.1088 88.34 64.7417C88.0748 64.3745 87.7393 64.066 87.3539 63.8346C86.9684 63.6032 86.5409 63.4538 86.0972 63.3954C85.6535 63.337 85.2027 63.3708 84.7722 63.4948C84.3417 63.6188 83.9403 63.8304 83.5922 64.1169C83.2442 64.4033 82.9567 64.7586 82.7472 65.1614C82.5376 65.5641 82.4103 66.006 82.373 66.4603C82.3357 66.9145 82.3891 67.3718 82.53 67.8045C81.8327 68.2979 81.2564 68.9485 80.8459 69.7057C80.4354 70.4629 80.2017 71.3064 80.1631 72.1706C80.1162 72.213 80.0625 72.2473 80.0181 72.2923C80.101 71.9701 80.1443 71.6387 80.1469 71.3056C80.1469 68.8127 77.9157 66.7919 75.1633 66.7919C74.5604 66.7946 73.962 66.8984 73.3922 67.0991C73.29 66.6553 73.1006 66.2372 72.8354 65.8701C72.5702 65.503 72.2347 65.1944 71.8492 64.963C71.4638 64.7316 71.0363 64.5822 70.5926 64.5238C70.1488 64.4654 69.6981 64.4992 69.2676 64.6232C68.8371 64.7472 68.4356 64.9588 68.0876 65.2453C67.7396 65.5317 67.4521 65.887 67.2425 66.2898C67.033 66.6926 66.9057 67.1344 66.8684 67.5887C66.8311 68.043 66.8845 68.5002 67.0254 68.9329C66.2902 69.4505 65.6893 70.1422 65.2742 70.9486C64.8591 71.7549 64.6423 72.6519 64.6423 73.5624C64.6423 74.473 64.8591 75.3699 65.2742 76.1763C65.6893 76.9826 66.2902 77.6743 67.0254 78.1919C66.8012 78.8476 66.8012 79.5614 67.0254 80.2171C66.4704 80.6116 65.9904 81.1055 65.6085 81.6748C65.4035 80.9169 64.9445 80.256 64.311 79.8071C63.6776 79.3581 62.9099 79.1493 62.1412 79.217C61.3725 79.2847 60.6513 79.6246 60.1029 80.1776C59.5545 80.7307 59.2135 81.462 59.1391 82.2445C58.6951 81.9794 58.2154 81.782 57.7153 81.6584C58.6124 81.055 59.3188 80.1998 59.7493 79.1962C62.4588 79.1513 64.6423 77.1555 64.6423 74.6908C64.6423 72.198 62.411 70.1772 59.6586 70.1772C59.0557 70.1799 58.4574 70.2837 57.8876 70.4844C57.7853 70.0406 57.5959 69.6225 57.3307 69.2554C57.0655 68.8882 56.7301 68.5796 56.3446 68.3482C55.9591 68.1169 55.5316 67.9675 55.0879 67.9091C54.6442 67.8507 54.1934 67.8845 53.7629 68.0085C53.3324 68.1325 52.931 68.3441 52.5829 68.6305C52.2349 68.917 51.9474 69.2723 51.7379 69.6751C51.5283 70.0778 51.4011 70.5197 51.3637 70.974C51.3264 71.4282 51.3798 71.8855 51.5207 72.3181C51.4497 72.3685 51.3857 72.4277 51.3171 72.4813C51.1443 72.4649 50.9763 72.434 50.7988 72.434C50.1959 72.4367 49.5976 72.5405 49.0278 72.7412C49.0068 72.6561 48.9724 72.5771 48.9453 72.4947C49.0525 71.9923 49.044 71.4715 48.9203 70.973C48.7967 70.4746 48.5613 70.0122 48.2327 69.6221C47.904 69.232 47.4911 68.9248 47.0263 68.7248C46.5615 68.5247 46.0575 68.4372 45.5539 68.469C45.2656 67.6508 44.7953 66.9116 44.18 66.3092C43.5647 65.7069 42.8209 65.2577 42.007 64.9969C41.193 64.7361 40.3308 64.6707 39.4879 64.8058C38.645 64.9408 37.8442 65.2728 37.148 65.7756C36.4519 66.2784 35.8794 66.9384 35.4753 67.7041C35.0711 68.4699 34.8463 69.3205 34.8183 70.1894C34.7904 71.0584 34.9601 71.9221 35.3142 72.7131C35.6683 73.5042 36.1972 74.201 36.8595 74.7492C36.4785 74.7937 36.1028 74.8771 35.7381 74.9981C35.6071 74.4479 35.3417 73.9404 34.9664 73.523C34.5912 73.1055 34.1184 72.7915 33.592 72.6104C33.0656 72.4292 32.5028 72.3867 31.9559 72.4869C31.4091 72.587 30.896 72.8265 30.4645 73.1831C29.9709 72.5858 29.3534 72.1076 28.6565 71.7829C27.9596 71.4582 27.2006 71.2952 26.4344 71.3056C25.8315 71.3083 25.2331 71.4121 24.6633 71.6128C24.5611 71.169 24.3717 70.7509 24.1065 70.3838C23.8413 70.0166 23.5058 69.7081 23.1203 69.4767C22.7349 69.2453 22.3074 69.0959 21.8636 69.0375C21.4199 68.9791 20.9692 69.0129 20.5387 69.1369C20.1081 69.2609 19.7067 69.4725 19.3587 69.759C19.0106 70.0454 18.7232 70.4007 18.5136 70.8035C18.3041 71.2062 18.1768 71.6481 18.1395 72.1024C18.1022 72.5566 18.1556 73.0139 18.2965 73.4466C17.5615 73.9644 16.9606 74.6561 16.5456 75.4624C16.1305 76.2687 15.9136 77.1656 15.9134 78.0761C15.9134 78.0936 15.9183 78.1096 15.9184 78.1271C15.1331 78.0058 14.3304 78.0941 13.5886 78.3833C13.4863 77.9395 13.2969 77.5215 13.0317 77.1543C12.7665 76.7872 12.4311 76.4786 12.0456 76.2472C11.6601 76.0158 11.2326 75.8664 10.7889 75.808C10.3452 75.7497 9.89447 75.7835 9.46395 75.9075C9.03342 76.0315 8.63202 76.2431 8.28398 76.5295C7.93593 76.8159 7.64846 77.1713 7.43891 77.574C7.22936 77.9768 7.10209 78.4186 7.06477 78.8729C7.02744 79.3272 7.08085 79.7844 7.22176 80.2171C6.1537 80.9538 5.37286 82.0487 5.01503 83.3112C4.65721 84.5738 4.74503 85.9243 5.26325 87.1277C5.78146 88.3312 6.69728 89.3115 7.85141 89.8981C9.00555 90.4848 10.325 90.6407 11.5803 90.3388C11.7802 91.516 12.343 92.5978 13.187 93.4272C14.0311 94.2566 15.1125 94.7904 16.2744 94.9512C17.4363 95.112 18.6183 94.8915 19.6489 94.3217C20.6795 93.7518 21.5051 92.8622 22.006 91.7819C22.4597 92.7598 23.1804 93.5837 24.082 94.1548C24.9836 94.7258 26.0276 95.0198 27.089 95.0016C28.1504 94.9833 29.1842 94.6535 30.0663 94.0518C30.9484 93.45 31.6414 92.6018 32.0624 91.6089C32.715 91.5995 33.3607 91.4721 33.9695 91.2327C34.3356 92.3015 35.0098 93.2329 35.904 93.9049C36.7981 94.5768 37.8705 94.9581 38.9809 94.9988C40.0912 95.0394 41.1878 94.7376 42.1269 94.1327C43.0661 93.5279 43.8042 92.6482 44.2446 91.6089C45.0521 91.5925 45.8457 91.3924 46.5675 91.0232C47.0728 91.9333 47.8174 92.6816 48.7176 93.1838C49.6177 93.686 50.6375 93.9222 51.6623 93.8658C52.687 93.8094 53.676 93.4626 54.5177 92.8645C55.3595 92.2664 56.0207 91.4407 56.4269 90.4804C56.724 90.473 57.0201 90.4415 57.3123 90.386C57.7267 91.41 58.428 92.2869 59.3286 92.9072C60.2292 93.5275 61.2892 93.8636 62.3763 93.8737C63.4633 93.8838 64.5291 93.5673 65.4406 92.9638C66.3522 92.3603 67.069 91.4966 67.5016 90.4804C67.9365 90.4679 68.3685 90.403 68.7885 90.287C69.9014 90.6031 71.0846 90.5471 72.164 90.1271C73.2434 89.7071 74.162 88.9453 74.7849 87.9537C74.4369 89.3278 74.6102 90.7851 75.27 92.0348C75.9299 93.2845 77.0279 94.2348 78.3451 94.6961C79.6622 95.1574 81.1016 95.0958 82.3761 94.5236C83.6506 93.9513 84.6665 92.9105 85.2212 91.6089C86.0286 91.5925 86.8223 91.3924 87.544 91.0232C88.0494 91.9333 88.794 92.6816 89.6941 93.1838C90.5943 93.686 91.6141 93.9222 92.6388 93.8658C93.6636 93.8094 94.6525 93.4626 95.4943 92.8645C96.3361 92.2664 96.9973 91.4407 97.4034 90.4804C98.2109 90.4641 99.0045 90.264 99.7263 89.8948C100.116 90.6019 100.652 91.2141 101.297 91.6887C101.942 92.1634 102.681 92.4892 103.462 92.6435C104.243 92.7978 105.048 92.7769 105.821 92.5822C106.593 92.3874 107.315 92.0236 107.935 91.516C108.128 92.5955 108.626 93.5939 109.369 94.3882C110.111 95.1825 111.066 95.7378 112.115 95.9856C113.164 96.2334 114.261 96.1629 115.271 95.7828C116.281 95.4027 117.16 94.7295 117.799 93.8465C118.463 94.3655 119.236 94.723 120.056 94.8917C120.877 95.0605 121.725 95.036 122.535 94.8202C123.345 94.6043 124.096 94.2028 124.731 93.6463C125.366 93.0898 125.868 92.3929 126.198 91.6089C128.907 91.5639 131.091 89.5681 131.091 87.1034C131.091 84.6106 128.859 82.5898 126.107 82.5898ZM27.123 80.2609C27.1172 80.2881 27.1132 80.316 27.1077 80.3434C27.0673 80.3419 27.029 80.3329 26.9881 80.3329C26.8226 80.3372 26.6577 80.3541 26.4947 80.3836C26.5037 80.3633 26.5163 80.3451 26.525 80.3247C26.7254 80.3145 26.925 80.2932 27.123 80.2609V80.2609ZM73.3922 78.3833C73.376 78.3176 73.3484 78.2572 73.3286 78.1931C74.1742 77.5957 74.8406 76.7711 75.2539 75.811C75.9822 75.807 76.7015 75.6468 77.3649 75.3407C78.0283 75.0346 78.621 74.5895 79.1044 74.0345C79.0619 74.2506 79.0401 74.4704 79.0394 74.6909C79.044 75.0352 79.1008 75.3767 79.2076 75.7034C78.2567 76.3789 77.5369 77.3404 77.1489 78.4533C75.9447 77.9756 74.6128 77.9508 73.3922 78.3833V78.3833ZM106.561 78.8041C106.559 78.7349 106.568 78.6636 106.563 78.595C106.704 78.5944 106.845 78.5847 106.985 78.5658C107.2 79.2959 107.559 79.9735 108.04 80.5571C107.936 80.587 107.826 80.605 107.724 80.6402C107.545 79.9146 107.136 79.2693 106.561 78.8041V78.8041Z" fill="#F9A825"/>
<path d="M11.5646 89.3603C9.99372 89.3601 8.43928 89.6861 6.99614 90.3184C5.553 90.9506 4.25144 91.8759 3.17086 93.0376C2.09028 94.1994 1.25336 95.5733 0.711153 97.0755C0.16895 98.5777 -0.0671597 100.177 0.0172336 101.775L7.51648 206.848C7.6746 209.86 8.96019 212.695 11.1084 214.769C13.2567 216.844 16.104 218 19.0638 218H115.758C118.718 218 121.565 216.844 123.713 214.769C125.862 212.695 127.147 209.86 127.305 206.848L134.805 101.775C134.889 100.177 134.653 98.5777 134.111 97.0755C133.568 95.5733 132.732 94.1994 131.651 93.0376C130.57 91.8759 129.269 90.9506 127.826 90.3184C126.383 89.6861 124.828 89.3601 123.257 89.3603H11.5646Z" fill="#3F3D56"/>
<path d="M23.6657 89.3603H17.0209V218H23.6657V89.3603Z" fill="#00B0FF"/>
<path d="M42.4928 89.3603H35.8479V218H42.4928V89.3603Z" fill="#00B0FF"/>
<path d="M61.3198 89.3603H54.675V218H61.3198V89.3603Z" fill="#00B0FF"/>
<path d="M80.1469 89.3603H73.502V218H80.1469V89.3603Z" fill="#00B0FF"/>
<path d="M98.9739 89.3603H92.3291V218H98.9739V89.3603Z" fill="#00B0FF"/>
<path d="M117.801 89.3603H111.156V218H117.801V89.3603Z" fill="#00B0FF"/>
<path d="M226.21 36.6227L223.313 29.4339L184.691 45.5902C183.816 45.9566 183.068 46.5794 182.542 47.3797C182.015 48.1799 181.734 49.1215 181.734 50.0849V92.6031H189.363V52.0467L226.21 36.6227Z" fill="#3F3D56"/>
<path d="M221.247 21.6217H212.929V48.4632H221.247V21.6217Z" fill="#00B0FF"/>
<path d="M208.077 27.2716H199.76V54.1131H208.077V27.2716Z" fill="#00B0FF"/>
<path d="M195.25 50.2289L189.358 51.9945L186.932 23.3875H195.25V50.2289Z" fill="#00B0FF"/>
<path d="M200.102 53.4068H173.759V61.8817H200.102V53.4068Z" fill="#00B0FF"/>
<path d="M200.106 65.0642H173.763V73.539H200.106V65.0642Z" fill="#00B0FF"/>
<path d="M200.102 76.7215H173.759V85.1964H200.102V76.7215Z" fill="#00B0FF"/>
<path d="M212.929 218H161.975L149.495 90.8464H224.024L212.929 218Z" fill="#3F3D56"/>
<path d="M229.569 88.7276H144.296V97.2024H229.569V88.7276Z" fill="#3F3D56"/>
<path d="M316.321 58.4829C332.149 58.4829 344.979 45.4096 344.979 29.2829C344.979 13.1562 332.149 0.0829163 316.321 0.0829163C300.494 0.0829163 287.663 13.1562 287.663 29.2829C287.663 45.4096 300.494 58.4829 316.321 58.4829Z" fill="#3AD29F"/>
<path d="M335.297 29.2828L306.613 43.643V29.2828V14.9226L335.297 29.2828Z" fill="url(#paint0_linear)"/>
<path d="M333.573 29.2828L308.333 41.921V29.2828V16.6446L333.573 29.2828Z" fill="white"/>
<path opacity="0.2" d="M290.008 32.6353C290.013 26.6259 291.836 20.7643 295.23 15.8497C298.624 10.935 303.424 7.20668 308.973 5.173C314.523 3.13933 320.554 2.89934 326.242 4.48575C331.931 6.07215 337.001 9.40774 340.761 14.0377C338.713 10.6056 335.992 7.64083 332.768 5.32867C329.545 3.01651 325.888 1.40664 322.026 0.599688C318.164 -0.20727 314.18 -0.193973 310.324 0.638742C306.467 1.47146 302.821 3.10569 299.612 5.43932C296.404 7.77295 293.702 10.7558 291.676 14.2015C289.65 17.6471 288.343 21.4815 287.837 25.4651C287.331 29.4486 287.637 33.4956 288.736 37.3532C289.835 41.2108 291.702 44.796 294.222 47.8849C291.459 43.2975 290 38.0181 290.008 32.6353V32.6353Z" fill="white"/>
<path d="M311.288 180.836C310.954 180.836 310.634 180.972 310.397 181.212C310.161 181.453 310.028 181.779 310.027 182.119V216.717C310.028 217.057 310.161 217.383 310.397 217.624C310.634 217.864 310.954 218 311.288 218H369.739C370.073 218 370.394 217.864 370.63 217.624C370.866 217.383 370.999 217.057 371 216.717V182.119C370.999 181.779 370.866 181.453 370.63 181.212C370.394 180.972 370.073 180.836 369.739 180.836H311.288Z" fill="#3F3D56"/>
<path d="M317.82 183.887C317.197 183.888 316.601 184.14 316.16 184.589C315.72 185.037 315.473 185.645 315.472 186.28V212.556C315.473 213.191 315.72 213.799 316.16 214.247C316.601 214.696 317.197 214.948 317.82 214.949H363.207C363.83 214.948 364.427 214.696 364.867 214.247C365.307 213.799 365.555 213.191 365.555 212.556V186.28C365.555 185.645 365.307 185.037 364.867 184.589C364.427 184.14 363.83 183.888 363.207 183.887L317.82 183.887Z" fill="#FF6584"/>
<path d="M311.945 192.232H281.498V199.418H311.945V192.232Z" fill="#3F3D56"/>
<path d="M228.517 180.836C228.183 180.837 227.863 180.972 227.627 181.213C227.39 181.453 227.258 181.779 227.257 182.119V216.717C227.258 217.057 227.39 217.383 227.627 217.623C227.863 217.864 228.183 217.999 228.517 218H286.969C287.303 217.999 287.623 217.864 287.859 217.623C288.095 217.383 288.228 217.057 288.229 216.717V182.119C288.228 181.779 288.095 181.453 287.859 181.213C287.623 180.972 287.303 180.837 286.969 180.836H228.517Z" fill="#3F3D56"/>
<path d="M235.05 183.887C234.427 183.888 233.83 184.14 233.39 184.588C232.949 185.037 232.701 185.645 232.701 186.28V212.556C232.701 213.191 232.949 213.799 233.39 214.248C233.83 214.696 234.427 214.948 235.05 214.949H280.436C281.059 214.948 281.656 214.696 282.096 214.248C282.537 213.799 282.784 213.191 282.785 212.556V186.28C282.784 185.645 282.537 185.037 282.096 184.588C281.656 184.14 281.059 183.888 280.436 183.887L235.05 183.887Z" fill="#00B0FF"/>
</g>
<defs>
<linearGradient id="paint0_linear" x1="320.955" y1="43.6431" x2="320.955" y2="14.9227" gradientUnits="userSpaceOnUse">
<stop stop-opacity="0.12"/>
<stop offset="0.55" stop-opacity="0.09"/>
<stop offset="1" stop-opacity="0.02"/>
</linearGradient>
<clipPath id="clip0">
<rect width="371" height="218" fill="white"/>
</clipPath>
</defs>
</svg>
