<svg width="384" height="302" viewBox="0 0 384 302" fill="none" xmlns="http://www.w3.org/2000/svg">
<path opacity="0.1" d="M311.483 40.0273V201.573C311.485 206.83 310.462 212.035 308.473 216.892C306.484 221.749 303.567 226.162 299.891 229.88C296.214 233.597 291.849 236.545 287.045 238.556C282.241 240.567 277.092 241.601 271.892 241.6H112.108C103.162 241.612 94.4768 238.55 87.4784 232.916C84.5818 230.583 82.0199 227.855 79.866 224.81C75.0845 218.026 72.5154 209.903 72.5166 201.573V40.0273C72.5166 38.9561 72.558 37.8963 72.6406 36.8478C72.7982 34.8001 73.1136 32.7679 73.5837 30.7698C75.646 22.0077 80.5702 14.2046 87.5606 8.62126C94.5509 3.03793 103.199 0.000583021 112.108 0H271.892C280.801 0.000583021 289.449 3.03793 296.439 8.62126C303.43 14.2046 308.354 22.0077 310.416 30.7698C310.886 32.7679 311.202 34.8001 311.359 36.8478C311.442 37.8963 311.483 38.9561 311.483 40.0273Z" fill="#00B0FF"/>
<path opacity="0.1" d="M195.006 127.258H311.483V133.336H195.006V175.502H311.483V181.58H195.006V241.6H188.994V181.58H72.5166V175.502H188.994V133.336H72.5166V127.258H188.994V85.0918H72.5166V79.0138H188.994V36.8478H72.6406C72.7982 34.8001 73.1136 32.7679 73.5837 30.7698H188.994V0H195.006V30.7698H310.416C310.886 32.7679 311.202 34.8001 311.359 36.8478H195.006V79.0138H311.483V85.0918H195.006V127.258Z" fill="#00B0FF"/>
<path opacity="0.1" d="M192 302C298.039 302 384 288.365 384 271.545C384 254.726 298.039 241.091 192 241.091C85.9613 241.091 0 254.726 0 271.545C0 288.365 85.9613 302 192 302Z" fill="#00B0FF"/>
<path d="M339.175 260.598C344.425 260.598 348.681 259.769 348.681 258.748C348.681 257.726 344.425 256.898 339.175 256.898C333.925 256.898 329.669 257.726 329.669 258.748C329.669 259.769 333.925 260.598 339.175 260.598Z" fill="#00B0FF"/>
<path d="M339.017 259.431C339.629 259.431 340.126 258.775 340.126 257.965C340.126 257.155 339.629 256.499 339.017 256.499C338.405 256.499 337.909 257.155 337.909 257.965C337.909 258.775 338.405 259.431 339.017 259.431Z" fill="#3F3D56"/>
<path d="M339.017 257.638C339.629 257.638 340.126 256.982 340.126 256.172C340.126 255.362 339.629 254.706 339.017 254.706C338.405 254.706 337.909 255.362 337.909 256.172C337.909 256.982 338.405 257.638 339.017 257.638Z" fill="#3F3D56"/>
<path d="M339.017 255.849C339.629 255.849 340.126 255.193 340.126 254.383C340.126 253.573 339.629 252.916 339.017 252.916C338.405 252.916 337.909 253.573 337.909 254.383C337.909 255.193 338.405 255.849 339.017 255.849Z" fill="#3F3D56"/>
<path d="M339.017 254.06C339.629 254.06 340.126 253.403 340.126 252.594C340.126 251.784 339.629 251.127 339.017 251.127C338.405 251.127 337.909 251.784 337.909 252.594C337.909 253.403 338.405 254.06 339.017 254.06Z" fill="#3F3D56"/>
<path d="M339.017 252.267C339.629 252.267 340.126 251.61 340.126 250.801C340.126 249.991 339.629 249.334 339.017 249.334C338.405 249.334 337.909 249.991 337.909 250.801C337.909 251.61 338.405 252.267 339.017 252.267Z" fill="#3F3D56"/>
<path d="M339.017 250.478C339.629 250.478 340.126 249.821 340.126 249.011C340.126 248.202 339.629 247.545 339.017 247.545C338.405 247.545 337.909 248.202 337.909 249.011C337.909 249.821 338.405 250.478 339.017 250.478Z" fill="#3F3D56"/>
<path d="M339.017 248.688C339.629 248.688 340.126 248.032 340.126 247.222C340.126 246.412 339.629 245.756 339.017 245.756C338.405 245.756 337.909 246.412 337.909 247.222C337.909 248.032 338.405 248.688 339.017 248.688Z" fill="#3F3D56"/>
<path d="M343.158 234.971C343.31 234.776 343.448 234.571 343.571 234.356L340.663 233.873L343.808 233.896C344.109 233.232 344.273 232.513 344.291 231.783C344.308 231.053 344.178 230.327 343.909 229.649L339.69 231.864L343.582 228.969C343.219 228.329 342.729 227.771 342.143 227.331C341.557 226.89 340.887 226.577 340.175 226.411C339.464 226.244 338.726 226.228 338.008 226.363C337.29 226.499 336.607 226.782 336.003 227.197C335.398 227.611 334.885 228.147 334.495 228.771C334.105 229.395 333.846 230.094 333.735 230.824C333.625 231.554 333.664 232.299 333.852 233.012C334.039 233.726 334.37 234.393 334.824 234.971C334.589 235.274 334.386 235.601 334.219 235.947L337.976 237.93L333.952 236.563C333.668 237.407 333.598 238.31 333.747 239.189C333.896 240.068 334.259 240.895 334.805 241.596C334.19 242.387 333.807 243.336 333.701 244.337C333.594 245.337 333.768 246.347 334.203 247.252C334.638 248.157 335.316 248.92 336.159 249.453C337.002 249.987 337.977 250.27 338.972 250.27C339.967 250.27 340.942 249.987 341.785 249.453C342.629 248.92 343.306 248.157 343.741 247.252C344.176 246.347 344.35 245.337 344.243 244.337C344.137 243.336 343.754 242.387 343.139 241.596C343.874 240.652 344.274 239.485 344.274 238.284C344.274 237.082 343.874 235.915 343.139 234.971H343.158Z" fill="#00B0FF"/>
<path opacity="0.1" d="M333.689 238.284C333.686 239.485 334.083 240.652 334.816 241.596C334.201 242.387 333.819 243.336 333.712 244.337C333.606 245.337 333.78 246.347 334.214 247.252C334.649 248.157 335.327 248.92 336.17 249.453C337.014 249.987 337.988 250.27 338.983 250.27C339.978 250.27 340.953 249.987 341.796 249.453C342.64 248.92 343.318 248.157 343.752 247.252C344.187 246.347 344.361 245.337 344.254 244.337C344.148 243.336 343.765 242.387 343.15 241.596C343.868 240.685 333.689 237.684 333.689 238.284Z" fill="black"/>
<path d="M304.157 211.59H77.589V264.203H304.157V211.59Z" fill="#46455B"/>
<path d="M79.092 157.078L57.6751 173.413L74.2074 188.608L83.6008 173.413L96.3757 157.078H79.092Z" fill="#46455B"/>
<path d="M300.399 176.831L297.393 173.413L278.231 162.396L295.89 162.016L323.319 173.413L312.047 180.63L300.399 176.831Z" fill="#46455B"/>
<path d="M77.589 177.591L96.3757 157.078V204.182L83.6008 214.819L75.7104 203.803L77.589 177.591Z" fill="#46455B"/>
<path d="M300.775 185.948L297.393 173.413L291.006 165.055L278.231 162.396V214.819H304.157L300.775 185.948Z" fill="#46455B"/>
<path d="M100.528 143.023H275.958C277.507 143.023 278.993 143.645 280.089 144.753C281.185 145.861 281.8 147.363 281.8 148.93V203.043H94.6849V148.93C94.6849 147.363 95.3005 145.861 96.3962 144.753C97.4919 143.645 98.978 143.023 100.528 143.023V143.023Z" fill="#46455B"/>
<path d="M83.6008 214.819L96.3757 198.864H278.231L297.393 214.819H83.6008Z" fill="#46455B"/>
<path opacity="0.05" d="M83.6008 214.819L96.3757 198.864H278.231L297.393 214.819H83.6008Z" fill="black"/>
<path d="M83.6008 173.413H57.6751V264.203H83.6008V173.413Z" fill="#46455B"/>
<path opacity="0.05" d="M83.6008 173.413H57.6751V264.203H83.6008V173.413Z" fill="white"/>
<path d="M323.319 173.413H297.393V264.203H323.319V173.413Z" fill="#46455B"/>
<path opacity="0.05" d="M323.319 173.413H297.393V264.203H323.319V173.413Z" fill="white"/>
<path d="M165.323 156.508C181.924 156.508 195.382 138.565 195.382 116.431C195.382 94.2977 181.924 76.3547 165.323 76.3547C148.722 76.3547 135.264 94.2977 135.264 116.431C135.264 138.565 148.722 156.508 165.323 156.508Z" fill="#2F2E41"/>
<path d="M178.474 99.1472H145.033V146.252H178.474V99.1472Z" fill="#2F2E41"/>
<path opacity="0.1" d="M178.474 99.1472H145.033V146.252H178.474V99.1472Z" fill="black"/>
<path d="M147.461 126.772C146.414 128.06 145.064 129.06 143.533 129.681C142.003 130.301 140.343 130.521 138.706 130.32C138.556 132.682 140.141 134.757 141.64 136.576L153.375 150.81C153.421 150.923 153.497 151.021 153.594 151.093C153.692 151.165 153.807 151.208 153.927 151.218C154.047 151.229 154.168 151.205 154.276 151.15C154.384 151.096 154.475 151.012 154.539 150.909L172.462 133.72C170.673 134.479 168.558 133.275 167.577 131.581C166.597 129.887 166.499 127.85 166.409 125.883C166.279 122.945 166.153 120.01 166.033 117.077C166.003 116.424 165.939 115.702 165.462 115.261C165.091 114.979 164.648 114.809 164.184 114.771C161.355 114.281 152.537 111.732 150.902 114.741C150.151 116.112 150.489 118.787 150.151 120.337C149.644 122.635 148.926 124.925 147.461 126.772Z" fill="#FBBEBE"/>
<path opacity="0.1" d="M147.461 126.772C146.414 128.06 145.064 129.06 143.533 129.681C142.003 130.301 140.343 130.521 138.706 130.32C138.556 132.682 140.141 134.757 141.64 136.576L153.375 150.81C153.421 150.923 153.497 151.021 153.594 151.093C153.692 151.165 153.807 151.208 153.927 151.218C154.047 151.229 154.168 151.205 154.276 151.15C154.384 151.096 154.475 151.012 154.539 150.909L172.462 133.72C170.673 134.479 168.558 133.275 167.577 131.581C166.597 129.887 166.499 127.85 166.409 125.883C166.279 122.945 166.153 120.01 166.033 117.077C166.003 116.424 165.939 115.702 165.462 115.261C165.091 114.979 164.648 114.809 164.184 114.771C161.355 114.281 152.537 111.732 150.902 114.741C150.151 116.112 150.489 118.787 150.151 120.337C149.644 122.635 148.926 124.925 147.461 126.772Z" fill="black"/>
<path d="M160.438 123.839C170.191 123.839 178.098 115.845 178.098 105.985C178.098 96.1244 170.191 88.1308 160.438 88.1308C150.685 88.1308 142.779 96.1244 142.779 105.985C142.779 115.845 150.685 123.839 160.438 123.839Z" fill="#FBBEBE"/>
<path d="M154.051 141.936L151.218 132.907C150.091 129.29 148.49 125.191 144.921 124.025C142.666 123.296 140.235 123.964 137.887 123.763C133.318 123.364 128.869 119.691 124.597 121.374C119.337 123.44 119.382 131.607 114.712 134.814C114.712 142.445 117.15 149.534 118.469 157.044C119.788 164.554 120.167 172.66 116.725 179.456C115.268 182.336 113.182 184.843 111.627 187.669C109.077 192.33 108.033 197.68 108.643 202.971C128.587 203.224 148.534 203.285 168.483 203.153C168.299 200.539 167.145 197.964 166.957 195.35C166.845 194.561 166.906 193.757 167.138 192.995C167.577 191.855 168.697 191.176 169.655 190.435C170.939 189.435 172.026 188.2 172.86 186.796C174.19 184.558 174.821 181.979 175.438 179.441L182.907 148.671C183.798 145.006 184.662 141.006 183.114 137.571C181.416 133.799 177.343 131.839 173.582 130.187C171.327 129.188 168.735 128.177 166.443 129.096C164.564 129.856 163.384 131.676 162.197 133.324C159.9 136.572 157.157 139.471 154.051 141.936V141.936Z" fill="#F86D70"/>
<path opacity="0.1" d="M114.512 137.522C113.926 139.741 114.253 142.111 113.821 144.36C113.096 148.124 110.379 151.118 108.561 154.476C105.742 159.69 105.029 165.805 106.569 171.54C107.028 173.215 107.843 175.008 109.451 175.623C110.601 176.068 111.886 175.791 113.115 175.901C114.738 176.045 116.425 176.858 117.924 176.212C119.776 175.415 120.145 172.98 120.348 170.955C120.815 166.259 121.815 161.634 123.327 157.169C124.83 152.702 126.893 148.269 126.863 143.547C126.84 140.219 122.624 143.281 119.874 141.309C116.771 139.099 115.531 133.689 114.512 137.522Z" fill="black"/>
<path d="M113.761 137.142C113.175 139.361 113.502 141.731 113.07 143.98C112.344 147.744 109.628 150.738 107.809 154.096C104.991 159.311 104.277 165.425 105.818 171.16C106.276 172.835 107.092 174.628 108.7 175.244C109.85 175.688 111.135 175.411 112.363 175.521C113.986 175.665 115.673 176.478 117.173 175.832C119.025 175.035 119.393 172.6 119.596 170.575C120.064 165.879 121.063 161.254 122.576 156.789C124.079 152.322 126.141 147.889 126.111 143.167C126.089 139.839 124.642 136.162 121.892 134.191C118.788 131.98 114.779 133.309 113.761 137.142Z" fill="#F86D70"/>
<path d="M139.472 116.253C141.727 114.977 143.947 113.594 146.269 112.409C149.899 110.574 153.979 109.142 156.835 106.331C156.982 106.189 157.163 106.087 157.359 106.036C157.556 105.985 157.763 105.985 157.959 106.037C158.156 106.089 158.336 106.192 158.483 106.334C158.629 106.476 158.737 106.654 158.796 106.851C160.025 110.897 161.479 114.869 163.151 118.749C164.594 122.092 166.202 125.374 167.284 128.853C168.036 131.273 168.505 133.792 169.441 136.12C170.662 139.159 172.612 141.864 174.547 144.516C175.257 145.496 175.99 146.491 176.986 147.175C178.383 148.136 180.469 148.751 180.615 150.453C178.8 151.779 176.332 151.342 174.096 151.323C171.861 151.304 169.587 151.771 167.378 152.322C164.797 152.917 162.28 153.767 159.863 154.86C157.511 155.98 155.355 157.454 153.175 158.92L133.198 172.47C131.729 170.772 131.785 168.292 131.469 166.043C131.2 164.425 130.813 162.829 130.312 161.268L128.321 154.487C127.374 151.266 126.442 148.048 125.375 144.861C124.496 142.202 123.519 139.516 121.798 137.321C119.724 134.662 116.74 132.937 114.152 130.798C113.235 130.039 112.329 129.172 111.987 128.025C111.874 127.651 111.842 127.256 111.894 126.867C111.946 126.479 112.08 126.107 112.288 125.776C112.837 124.975 113.622 125.093 114.494 124.952C116.62 124.61 118.729 124.178 120.821 123.657C124.97 122.616 129.026 121.226 132.946 119.501C135.173 118.528 137.348 117.446 139.472 116.253Z" fill="#BBBDC8"/>
<path opacity="0.1" d="M140.292 119.064C142.272 117.955 144.195 116.739 146.221 115.713C149.392 114.11 152.946 112.864 155.437 110.422C155.565 110.297 155.723 110.207 155.895 110.162C156.067 110.116 156.247 110.116 156.42 110.162C156.592 110.207 156.749 110.296 156.877 110.421C157.005 110.546 157.099 110.702 157.151 110.874C158.222 114.403 159.49 117.868 160.949 121.252C162.208 124.169 163.61 127.034 164.545 130.069C165.191 132.177 165.608 134.362 166.424 136.409C167.487 139.068 169.193 141.42 170.876 143.733C171.451 144.621 172.17 145.405 173.003 146.05C174.228 146.89 176.046 147.425 176.17 148.914C174.588 150.054 172.436 149.674 170.485 149.674C168.504 149.715 166.536 150.008 164.628 150.548C162.378 151.066 160.184 151.808 158.079 152.763C156.047 153.797 154.097 154.985 152.244 156.318L134.813 168.121C133.532 166.639 133.585 164.463 133.31 162.51C133.077 161.094 132.74 159.698 132.303 158.332L130.564 152.417C129.737 149.606 128.911 146.799 127.994 144.018C127.242 141.697 126.378 139.357 124.875 137.438C123.064 135.125 120.464 133.617 118.202 131.74C117.406 131.083 116.613 130.323 116.323 129.324C116.224 128.998 116.197 128.654 116.242 128.315C116.287 127.977 116.405 127.652 116.586 127.364C117.064 126.661 117.751 126.764 118.51 126.642C120.366 126.346 122.206 125.966 124.03 125.503C127.65 124.597 131.188 123.385 134.607 121.879C136.548 121.033 138.443 120.095 140.292 119.064Z" fill="black"/>
<path d="M132.999 134.529C133.829 134.529 134.501 133.848 134.501 133.009C134.501 132.17 133.829 131.49 132.999 131.49C132.168 131.49 131.496 132.17 131.496 133.009C131.496 133.848 132.168 134.529 132.999 134.529Z" fill="#BBBDC8"/>
<path d="M149.024 127.026C149.854 127.026 150.526 126.346 150.526 125.507C150.526 124.667 149.854 123.987 149.024 123.987C148.194 123.987 147.521 124.667 147.521 125.507C147.521 126.346 148.194 127.026 149.024 127.026Z" fill="#BBBDC8"/>
<path d="M140.577 151.076C141.407 151.076 142.08 150.396 142.08 149.556C142.08 148.717 141.407 148.037 140.577 148.037C139.747 148.037 139.074 148.717 139.074 149.556C139.074 150.396 139.747 151.076 140.577 151.076Z" fill="#BBBDC8"/>
<path d="M156.602 143.573C157.432 143.573 158.105 142.893 158.105 142.054C158.105 141.215 157.432 140.534 156.602 140.534C155.772 140.534 155.099 141.215 155.099 142.054C155.099 142.893 155.772 143.573 156.602 143.573Z" fill="#BBBDC8"/>
<path d="M117.338 159.107C118.841 158.67 120.423 158.191 121.527 157.07C122.384 156.197 122.861 155.023 123.462 153.952C124.661 151.813 126.558 149.917 128.944 149.446C131.33 148.975 134.133 150.369 134.644 152.774C134.975 154.339 134.329 155.931 133.686 157.397C132.724 159.593 131.638 161.895 129.654 163.221C127.919 164.379 125.706 164.634 124 165.838C122.497 166.902 121.55 168.584 120.242 169.895C118.533 171.597 116.272 172.616 113.877 172.763C113.514 172.806 113.145 172.755 112.807 172.615C112.475 172.416 112.196 172.138 111.995 171.806C110.89 170.286 109.771 168.721 109.184 166.924C107.144 160.66 112.919 160.387 117.338 159.107Z" fill="#FBBEBE"/>
<path d="M157.369 159.942C156.861 156.88 156.794 153.541 154.923 151.08C153.356 149.025 150.752 147.984 148.189 147.809C147.438 147.756 146.555 147.832 146.119 148.455C145.871 148.894 145.772 149.404 145.837 149.906C145.996 153.797 147.432 157.523 149.918 160.497C150.853 161.606 151.939 162.617 152.593 163.916C153.164 165.036 153.375 166.317 153.904 167.456C154.596 168.941 155.783 170.115 156.692 171.483C157.981 173.442 158.65 175.751 158.609 178.104C159.6 176.467 159.48 174.419 159.574 172.501C159.698 169.8 161.569 168.322 160.356 166.119C159.142 163.916 157.808 162.62 157.369 159.942Z" fill="#FBBEBE"/>
<path opacity="0.1" d="M171.237 156.892C170.286 159.399 169.798 162.081 168.678 164.516C168.383 165.278 167.877 165.937 167.22 166.415C166.018 167.175 164.429 166.704 163.234 165.948C162.039 165.192 160.979 164.151 159.676 163.65C159.089 169.42 154.348 174.499 148.682 175.426C152.063 178.567 155.625 182.059 156.388 186.632C156.531 187.472 156.58 188.364 157.023 189.09C157.737 190.249 159.244 190.628 160.596 190.609C164.034 190.583 167.187 188.748 170.057 186.811C171.027 186.165 172.007 185.474 172.653 184.501C173.3 183.529 173.578 182.294 173.822 181.116C175.483 173.137 177.142 165.153 178.8 157.165C179.251 154.996 179.176 150.734 175.847 151.163C173.589 151.498 171.936 155.057 171.237 156.892Z" fill="black"/>
<path d="M171.988 156.892C171.038 159.399 170.549 162.081 169.43 164.516C169.134 165.278 168.628 165.937 167.972 166.415C166.769 167.175 165.18 166.704 163.985 165.948C162.79 165.192 161.731 164.151 160.427 163.65C159.841 169.42 155.099 174.499 149.433 175.426C152.815 178.567 156.377 182.059 157.139 186.632C157.282 187.472 157.331 188.364 157.774 189.09C158.488 190.249 159.995 190.628 161.348 190.609C164.786 190.583 167.938 188.748 170.809 186.811C171.778 186.165 172.759 185.474 173.405 184.501C174.051 183.529 174.329 182.294 174.573 181.116C176.234 173.137 177.894 165.153 179.552 157.165C180.003 154.996 179.928 150.734 176.599 151.163C174.341 151.498 172.687 155.057 171.988 156.892Z" fill="#F86D70"/>
<path d="M117.176 171.707C117.041 172.402 116.361 172.824 115.745 173.158C114.554 173.808 113.257 174.48 111.916 174.298C110.575 174.115 109.451 173.112 108.572 172.049C108.134 171.543 107.756 170.987 107.445 170.393C106.088 167.684 105.942 156.159 111.548 159.919C113.862 161.477 112.559 164.136 112.848 166.427C112.974 167.785 113.511 169.072 114.385 170.111C114.554 170.309 117.09 172.155 117.176 171.707Z" fill="#F86D70"/>
<path d="M165.135 101.806C174.369 101.806 181.855 98.2347 181.855 93.8289C181.855 89.4232 174.369 85.8516 165.135 85.8516C155.901 85.8516 148.415 89.4232 148.415 93.8289C148.415 98.2347 155.901 101.806 165.135 101.806Z" fill="#2F2E41"/>
<path opacity="0.1" d="M165.886 99.1472C156.839 99.1472 149.478 95.7283 149.181 91.4357C148.701 92.1403 148.44 92.9735 148.43 93.8289C148.43 98.2355 155.915 101.806 165.15 101.806C174.386 101.806 181.87 98.2355 181.87 93.8289C181.87 93.7378 181.87 93.6504 181.87 93.563C179.71 96.7995 173.375 99.1472 165.886 99.1472Z" fill="black"/>
<path d="M238.591 155.748C261.417 155.748 279.922 138.741 279.922 117.761C279.922 96.7811 261.417 79.7736 238.591 79.7736C215.765 79.7736 197.26 96.7811 197.26 117.761C197.26 138.741 215.765 155.748 238.591 155.748Z" fill="#2F2E41"/>
<path opacity="0.1" d="M238.591 145.872C217.659 145.872 200.36 131.566 197.636 113.013C197.387 114.71 197.262 116.424 197.26 118.141C197.26 139.121 215.765 156.128 238.591 156.128C261.417 156.128 279.922 139.121 279.922 118.141C279.92 116.424 279.795 114.71 279.546 113.013C276.822 131.566 259.523 145.872 238.591 145.872Z" fill="black"/>
<path d="M237.84 146.252C248.838 146.252 257.753 134.091 257.753 119.091C257.753 104.09 248.838 91.9296 237.84 91.9296C226.841 91.9296 217.926 104.09 217.926 119.091C217.926 134.091 226.841 146.252 237.84 146.252Z" fill="#2F2E41"/>
<path opacity="0.1" d="M237.84 146.252C248.838 146.252 257.753 134.091 257.753 119.091C257.753 104.09 248.838 91.9296 237.84 91.9296C226.841 91.9296 217.926 104.09 217.926 119.091C217.926 134.091 226.841 146.252 237.84 146.252Z" fill="black"/>
<path d="M228.683 132.857C227.931 134.734 226.429 136.728 224.174 136.872C227.18 139.368 230.223 141.891 233.815 143.71C237.407 145.53 241.661 146.597 245.749 145.944C248.634 145.484 251.257 144.204 253.707 142.802C257.877 140.417 261.973 137.283 263.029 133.036C259.897 133.195 256.759 133.135 253.635 132.857C252.016 132.717 250.359 132.5 248.954 131.786C248.091 131.326 247.328 130.695 246.711 129.932C246.093 129.168 245.633 128.288 245.358 127.341C244.798 125.548 244.809 123.66 244.911 121.803C244.967 120.72 245.009 119.524 244.186 118.695C243.363 117.867 242.003 117.757 240.766 117.731C238.28 117.68 235.794 117.828 233.331 118.175C232.039 118.311 230.759 118.546 229.502 118.878C227.871 119.379 228.025 119.186 228.42 120.564C229.645 124.789 230.392 128.587 228.683 132.857Z" fill="#A0616A"/>
<path opacity="0.1" d="M228.683 132.857C227.931 134.734 226.429 136.728 224.174 136.872C227.18 139.368 230.223 141.891 233.815 143.71C237.407 145.53 241.661 146.597 245.749 145.944C248.634 145.484 251.257 144.204 253.707 142.802C257.877 140.417 261.973 137.283 263.029 133.036C259.897 133.195 256.759 133.135 253.635 132.857C252.016 132.717 250.359 132.5 248.954 131.786C248.091 131.326 247.328 130.695 246.711 129.932C246.093 129.168 245.633 128.288 245.358 127.341C244.798 125.548 244.809 123.66 244.911 121.803C244.967 120.72 245.009 119.524 244.186 118.695C243.363 117.867 242.003 117.757 240.766 117.731C238.28 117.68 235.794 117.828 233.331 118.175C232.039 118.311 230.759 118.546 229.502 118.878C227.871 119.379 228.025 119.186 228.42 120.564C229.645 124.789 230.392 128.587 228.683 132.857Z" fill="black"/>
<path d="M237.276 128.967C247.029 128.967 254.935 120.974 254.935 111.113C254.935 101.253 247.029 93.2591 237.276 93.2591C227.523 93.2591 219.616 101.253 219.616 111.113C219.616 120.974 227.523 128.967 237.276 128.967Z" fill="#A0616A"/>
<path d="M231.189 134.43C230.036 133.032 228.848 131.604 227.311 130.654C224.794 129.093 221.675 128.994 218.726 128.944C215.528 128.888 212.053 128.918 209.524 130.897C208.397 131.79 207.533 133.013 206.71 134.213L195.998 149.788C195.581 150.396 195.141 151.084 195.246 151.817C195.366 152.344 195.626 152.829 195.998 153.218L207.781 168.094C208.453 168.941 209.148 169.834 209.374 170.898C209.599 171.961 209.321 173.078 208.961 174.112C207.537 178.21 204.828 182.089 205.076 186.408C205.252 189.227 206.71 191.818 208.495 194.006C212.59 198.993 218.485 202.237 224.651 204.008C230.817 205.778 237.291 206.165 243.705 206.207C255.796 206.287 268.503 204.954 278.49 198.059L270.641 190.583C269.089 189.101 267.462 187.506 266.925 185.417C266.549 184.011 266.73 182.53 266.899 181.09C267.214 178.457 267.53 175.806 268.372 173.299C270.712 166.313 276.728 161.34 280.741 155.182C281.244 154.423 281.733 153.549 281.676 152.626C281.631 151.847 281.203 151.152 280.786 150.499C278.952 147.623 277.051 144.762 275.721 141.617C274.729 139.277 274.057 136.789 272.828 134.567C271.599 132.344 269.649 130.346 267.192 129.879C264.028 129.279 260.943 131.281 257.731 131.417C255.379 131.52 252.925 130.627 250.727 131.474C248.12 132.481 246.97 135.452 245.508 137.864C244.43 139.661 241.214 144.576 238.692 143.368C237.321 142.707 236.062 140.329 235.078 139.163L231.189 134.43Z" fill="#F98A8D"/>
<path d="M245.256 146.506C244.661 146.167 243.97 146.041 243.295 146.149C242.962 146.214 242.659 146.388 242.434 146.645C242.209 146.902 242.074 147.227 242.052 147.57L240.966 147.505C240.84 147.492 240.713 147.498 240.59 147.524C240.433 147.558 240.296 147.654 240.209 147.791C240.122 147.927 240.092 148.093 240.126 148.252C240.16 148.41 240.255 148.549 240.39 148.637C240.524 148.725 240.688 148.755 240.845 148.721C240.312 148.934 239.837 149.273 239.459 149.708C239.175 150.139 239.072 150.666 239.17 151.174C239.269 151.682 239.561 152.13 239.985 152.421C240.429 152.679 240.952 152.764 241.454 152.661C241.956 152.557 242.404 152.272 242.713 151.859C242.649 152.085 242.667 152.328 242.764 152.543C242.86 152.757 243.028 152.931 243.239 153.032C245.275 154.145 246.312 152.633 246.59 150.882C246.906 148.96 247.312 147.532 245.256 146.506Z" fill="#FFE9B3"/>
<path opacity="0.15" d="M245.256 146.506C244.661 146.167 243.97 146.041 243.295 146.149C242.962 146.214 242.659 146.388 242.434 146.645C242.209 146.902 242.074 147.227 242.052 147.57L240.966 147.505C240.84 147.492 240.713 147.498 240.59 147.524C240.433 147.558 240.296 147.654 240.209 147.791C240.122 147.927 240.092 148.093 240.126 148.252C240.16 148.41 240.255 148.549 240.39 148.637C240.524 148.725 240.688 148.755 240.845 148.721C240.312 148.934 239.837 149.273 239.459 149.708C239.175 150.139 239.072 150.666 239.17 151.174C239.269 151.682 239.561 152.13 239.985 152.421C240.429 152.679 240.952 152.764 241.454 152.661C241.956 152.557 242.404 152.272 242.713 151.859C242.649 152.085 242.667 152.328 242.764 152.543C242.86 152.757 243.028 152.931 243.239 153.032C245.275 154.145 246.312 152.633 246.59 150.882C246.906 148.96 247.312 147.532 245.256 146.506Z" fill="black"/>
<path d="M250.802 145.215C250.207 144.875 249.516 144.75 248.841 144.861C248.508 144.925 248.205 145.098 247.981 145.355C247.756 145.611 247.623 145.936 247.601 146.278L246.515 146.214C246.39 146.201 246.263 146.207 246.14 146.233C245.993 146.279 245.868 146.379 245.79 146.513C245.711 146.647 245.685 146.806 245.715 146.958C245.755 147.109 245.849 147.239 245.979 147.322C246.109 147.406 246.266 147.437 246.418 147.41C245.885 147.625 245.41 147.963 245.031 148.398C244.749 148.829 244.645 149.355 244.744 149.863C244.842 150.371 245.134 150.819 245.557 151.11C246.002 151.369 246.524 151.455 247.027 151.352C247.53 151.25 247.979 150.965 248.289 150.552C248.225 150.778 248.243 151.019 248.338 151.233C248.434 151.447 248.601 151.62 248.811 151.722C250.851 152.839 251.884 151.342 252.166 149.575C252.456 147.669 252.869 146.24 250.802 145.215Z" fill="#FFE9B3"/>
<path d="M255.326 145.868C254.732 145.529 254.042 145.404 253.369 145.515C253.035 145.577 252.732 145.751 252.506 146.007C252.281 146.264 252.147 146.589 252.125 146.932L251.039 146.867C250.914 146.853 250.787 146.86 250.663 146.886C250.516 146.933 250.392 147.033 250.314 147.166C250.235 147.3 250.209 147.459 250.239 147.612C250.279 147.762 250.373 147.892 250.503 147.976C250.633 148.059 250.79 148.091 250.941 148.064C250.408 148.276 249.932 148.615 249.555 149.051C249.271 149.482 249.168 150.009 249.266 150.517C249.365 151.025 249.657 151.473 250.081 151.764C250.525 152.023 251.047 152.11 251.549 152.007C252.052 151.904 252.5 151.619 252.809 151.205C252.746 151.432 252.764 151.673 252.86 151.887C252.956 152.102 253.124 152.274 253.335 152.375C255.371 153.492 256.405 151.976 256.686 150.229C256.979 148.341 257.378 146.894 255.326 145.868Z" fill="#FFE9B3"/>
<path opacity="0.15" d="M255.326 145.868C254.732 145.529 254.042 145.404 253.369 145.515C253.035 145.577 252.732 145.751 252.506 146.007C252.281 146.264 252.147 146.589 252.125 146.932L251.039 146.867C250.914 146.853 250.787 146.86 250.663 146.886C250.516 146.933 250.392 147.033 250.314 147.166C250.235 147.3 250.209 147.459 250.239 147.612C250.279 147.762 250.373 147.892 250.503 147.976C250.633 148.059 250.79 148.091 250.941 148.064C250.408 148.276 249.932 148.615 249.555 149.051C249.271 149.482 249.168 150.009 249.266 150.517C249.365 151.025 249.657 151.473 250.081 151.764C250.525 152.023 251.047 152.11 251.549 152.007C252.052 151.904 252.5 151.619 252.809 151.205C252.746 151.432 252.764 151.673 252.86 151.887C252.956 152.102 253.124 152.274 253.335 152.375C255.371 153.492 256.405 151.976 256.686 150.229C256.979 148.341 257.378 146.894 255.326 145.868Z" fill="black"/>
<path d="M266.395 148.531V189.337C266.394 189.597 266.292 189.845 266.11 190.029C265.929 190.212 265.683 190.316 265.426 190.317H233.924C233.668 190.316 233.422 190.212 233.24 190.029C233.058 189.845 232.956 189.597 232.955 189.337V148.531C232.955 148.368 232.995 148.208 233.071 148.064C233.147 147.921 233.258 147.799 233.392 147.71C233.527 147.62 233.681 147.566 233.842 147.553C234.002 147.539 234.164 147.566 234.311 147.631C235.113 147.98 235.913 148.303 236.712 148.599C237.84 149.017 238.967 149.38 240.094 149.689C241.221 149.997 242.348 150.252 243.476 150.449C244.603 150.647 245.73 150.799 246.857 150.89C247.984 150.981 249.112 151.019 250.239 150.996C251.366 150.973 252.493 150.909 253.62 150.783C254.748 150.658 255.875 150.472 257.002 150.233C258.129 149.993 259.256 149.712 260.384 149.367C261.259 149.097 262.138 148.797 263.014 148.462C263.69 148.208 264.363 147.931 265.039 147.634C265.186 147.569 265.347 147.543 265.507 147.556C265.668 147.57 265.822 147.624 265.956 147.713C266.091 147.801 266.201 147.923 266.278 148.066C266.355 148.208 266.395 148.368 266.395 148.531V148.531Z" fill="#BBBDC8"/>
<path d="M240.094 149.689V190.336H236.712V148.599C237.84 149.017 238.967 149.38 240.094 149.689Z" fill="white"/>
<path d="M246.857 150.886V190.317H243.476V150.43C244.603 150.651 245.73 150.795 246.857 150.886Z" fill="white"/>
<path d="M253.62 150.78V190.317H250.239V151C251.366 150.98 252.493 150.906 253.62 150.78Z" fill="white"/>
<path d="M260.384 149.363V190.317H257.002V150.24C258.129 150.002 259.256 149.71 260.384 149.363Z" fill="white"/>
<path opacity="0.1" d="M266.395 148.531V189.337C266.394 189.597 266.292 189.845 266.11 190.029C265.929 190.212 265.683 190.316 265.426 190.317H263.014V148.459C263.69 148.204 264.363 147.927 265.039 147.631C265.187 147.566 265.348 147.539 265.508 147.553C265.669 147.566 265.823 147.62 265.958 147.71C266.093 147.799 266.203 147.921 266.279 148.064C266.356 148.208 266.396 148.368 266.395 148.531Z" fill="black"/>
<path d="M241.751 144.561C241.157 144.222 240.467 144.098 239.793 144.208C239.46 144.271 239.156 144.444 238.931 144.701C238.706 144.957 238.572 145.282 238.55 145.625L237.464 145.56C237.338 145.547 237.212 145.553 237.088 145.579C236.941 145.626 236.817 145.726 236.738 145.86C236.66 145.994 236.633 146.152 236.663 146.305C236.703 146.455 236.798 146.585 236.928 146.669C237.058 146.753 237.214 146.784 237.366 146.757C236.833 146.969 236.357 147.308 235.98 147.744C235.696 148.175 235.592 148.702 235.691 149.21C235.789 149.718 236.082 150.166 236.506 150.457C236.95 150.715 237.472 150.802 237.974 150.699C238.476 150.596 238.924 150.311 239.234 149.898C239.17 150.125 239.188 150.367 239.285 150.581C239.381 150.795 239.549 150.968 239.76 151.068C241.796 152.181 242.829 150.67 243.111 148.922C243.404 147.015 243.81 145.587 241.751 144.561Z" fill="#FFE9B3"/>
<path d="M247.387 138.103C246.793 137.764 246.103 137.64 245.429 137.75C245.096 137.813 244.792 137.986 244.567 138.243C244.342 138.499 244.208 138.825 244.186 139.167L243.1 139.102C242.974 139.089 242.848 139.095 242.724 139.121C242.577 139.168 242.453 139.268 242.374 139.402C242.296 139.536 242.269 139.694 242.299 139.847C242.339 139.997 242.434 140.127 242.564 140.211C242.694 140.295 242.85 140.326 243.002 140.299C242.469 140.512 241.993 140.85 241.616 141.287C241.332 141.718 241.228 142.244 241.327 142.752C241.425 143.26 241.718 143.708 242.142 143.999C242.586 144.258 243.108 144.344 243.61 144.241C244.112 144.138 244.56 143.853 244.87 143.44C244.806 143.667 244.824 143.909 244.921 144.123C245.017 144.337 245.185 144.51 245.396 144.611C247.432 145.724 248.465 144.212 248.747 142.464C249.04 140.557 249.446 139.129 247.387 138.103Z" fill="#FFE9B3"/>
<path d="M251.216 146.875C251.661 146.351 251.917 145.689 251.941 144.998C251.948 144.654 251.84 144.317 251.636 144.042C251.432 143.767 251.142 143.568 250.814 143.479L251.088 142.415C251.128 142.292 251.147 142.164 251.144 142.035C251.138 141.875 251.07 141.724 250.953 141.615C250.837 141.506 250.683 141.448 250.524 141.454C250.366 141.46 250.216 141.529 250.108 141.647C250.001 141.764 249.943 141.92 249.949 142.081C249.847 141.511 249.611 140.974 249.262 140.515C248.898 140.152 248.406 139.948 247.894 139.948C247.382 139.948 246.891 140.152 246.526 140.515C246.187 140.904 246 141.405 246 141.923C246 142.441 246.187 142.942 246.526 143.33C246.318 143.224 246.08 143.195 245.853 143.25C245.626 143.304 245.425 143.437 245.287 143.627C243.81 145.427 245.076 146.749 246.718 147.368C248.514 148.037 249.822 148.721 251.216 146.875Z" fill="#FFE9B3"/>
<path d="M256.1 146.875C256.546 146.351 256.802 145.689 256.825 144.998C256.832 144.654 256.725 144.317 256.521 144.042C256.316 143.767 256.027 143.568 255.698 143.479L255.972 142.415C256.012 142.292 256.031 142.164 256.029 142.035C256.023 141.875 255.954 141.724 255.838 141.615C255.722 141.506 255.567 141.448 255.409 141.454C255.25 141.46 255.101 141.529 254.993 141.647C254.885 141.764 254.828 141.92 254.834 142.081C254.731 141.511 254.496 140.974 254.146 140.515C253.782 140.152 253.291 139.948 252.779 139.948C252.267 139.948 251.775 140.152 251.411 140.515C251.072 140.904 250.885 141.405 250.885 141.923C250.885 142.441 251.072 142.942 251.411 143.33C251.203 143.224 250.964 143.195 250.738 143.25C250.511 143.304 250.31 143.437 250.171 143.627C248.694 145.427 249.961 146.749 251.603 147.368C253.399 148.037 254.706 148.721 256.1 146.875Z" fill="#FFE9B3"/>
<path d="M259.159 150.122C259.503 149.525 259.635 148.827 259.534 148.143C259.475 147.805 259.307 147.497 259.055 147.266C258.803 147.036 258.483 146.897 258.144 146.871L258.223 145.777C258.242 145.651 258.242 145.523 258.223 145.397C258.188 145.241 258.092 145.105 257.958 145.02C257.824 144.935 257.662 144.907 257.507 144.943C257.353 144.979 257.219 145.075 257.135 145.211C257.05 145.346 257.023 145.51 257.058 145.667C256.852 145.126 256.522 144.642 256.096 144.253C255.673 143.962 255.153 143.852 254.649 143.946C254.146 144.04 253.699 144.33 253.406 144.755C253.145 145.201 253.055 145.729 253.152 146.238C253.249 146.747 253.526 147.203 253.932 147.52C253.709 147.454 253.469 147.47 253.256 147.566C253.043 147.661 252.87 147.829 252.767 148.041C251.64 150.088 253.143 151.152 254.857 151.46C256.716 151.76 258.129 152.189 259.159 150.122Z" fill="#FFE9B3"/>
<path d="M244.129 144.045C244.474 143.447 244.606 142.749 244.505 142.065C244.446 141.727 244.277 141.419 244.026 141.188C243.774 140.958 243.453 140.819 243.115 140.793L243.194 139.699C243.213 139.573 243.213 139.445 243.194 139.319C243.158 139.163 243.063 139.027 242.929 138.942C242.795 138.857 242.632 138.829 242.478 138.865C242.323 138.901 242.189 138.997 242.105 139.133C242.021 139.268 241.994 139.432 242.029 139.589C241.822 139.048 241.493 138.564 241.067 138.175C240.644 137.884 240.124 137.774 239.62 137.868C239.117 137.962 238.67 138.252 238.377 138.677C238.116 139.123 238.026 139.651 238.122 140.16C238.219 140.669 238.497 141.125 238.903 141.442C238.679 141.376 238.44 141.392 238.227 141.488C238.013 141.583 237.84 141.751 237.738 141.963C236.611 144.01 238.114 145.074 239.827 145.382C241.687 145.682 243.1 146.111 244.129 144.045Z" fill="#FFE9B3"/>
<path d="M245.632 141.948C245.037 141.608 244.346 141.482 243.671 141.591C243.338 141.655 243.035 141.83 242.81 142.087C242.585 142.344 242.45 142.669 242.427 143.011L241.341 142.947C241.216 142.933 241.089 142.94 240.966 142.966C240.809 143 240.672 143.096 240.585 143.232C240.498 143.369 240.468 143.534 240.502 143.693C240.536 143.852 240.63 143.99 240.765 144.078C240.9 144.166 241.064 144.197 241.221 144.162C240.688 144.376 240.213 144.714 239.835 145.15C239.551 145.581 239.447 146.108 239.546 146.615C239.644 147.123 239.937 147.571 240.361 147.862C240.805 148.121 241.327 148.206 241.83 148.102C242.332 147.999 242.78 147.714 243.089 147.3C243.025 147.527 243.043 147.769 243.139 147.984C243.236 148.199 243.404 148.372 243.615 148.474C245.651 149.587 246.688 148.075 246.966 146.324C247.282 144.402 247.688 142.973 245.632 141.948Z" fill="#FFE9B3"/>
<path opacity="0.15" d="M245.632 141.948C245.037 141.608 244.346 141.482 243.671 141.591C243.338 141.655 243.035 141.83 242.81 142.087C242.585 142.344 242.45 142.669 242.427 143.011L241.341 142.947C241.216 142.933 241.089 142.94 240.966 142.966C240.809 143 240.672 143.096 240.585 143.232C240.498 143.369 240.468 143.534 240.502 143.693C240.536 143.852 240.63 143.99 240.765 144.078C240.9 144.166 241.064 144.197 241.221 144.162C240.688 144.376 240.213 144.714 239.835 145.15C239.551 145.581 239.447 146.108 239.546 146.615C239.644 147.123 239.937 147.571 240.361 147.862C240.805 148.121 241.327 148.206 241.83 148.102C242.332 147.999 242.78 147.714 243.089 147.3C243.025 147.527 243.043 147.769 243.139 147.984C243.236 148.199 243.404 148.372 243.615 148.474C245.651 149.587 246.688 148.075 246.966 146.324C247.282 144.402 247.688 142.973 245.632 141.948Z" fill="black"/>
<path d="M261.793 143.254C261.198 142.915 260.506 142.79 259.831 142.901C259.498 142.964 259.195 143.138 258.97 143.394C258.744 143.651 258.61 143.976 258.588 144.318L257.505 144.253C257.38 144.24 257.253 144.247 257.13 144.272C256.983 144.319 256.858 144.419 256.78 144.553C256.702 144.687 256.675 144.845 256.705 144.998C256.745 145.149 256.839 145.278 256.969 145.362C257.1 145.446 257.256 145.477 257.408 145.45C256.875 145.665 256.4 146.003 256.021 146.438C255.739 146.869 255.636 147.395 255.734 147.903C255.832 148.411 256.125 148.859 256.547 149.15C256.991 149.409 257.513 149.495 258.016 149.392C258.518 149.289 258.966 149.005 259.275 148.592C259.212 148.818 259.23 149.06 259.326 149.274C259.423 149.488 259.591 149.661 259.801 149.762C261.838 150.875 262.875 149.363 263.153 147.612C263.442 145.708 263.848 144.28 261.793 143.254Z" fill="#FFE9B3"/>
<path opacity="0.15" d="M261.793 143.254C261.198 142.915 260.506 142.79 259.831 142.901C259.498 142.964 259.195 143.138 258.97 143.394C258.744 143.651 258.61 143.976 258.588 144.318L257.505 144.253C257.38 144.24 257.253 144.247 257.13 144.272C256.983 144.319 256.858 144.419 256.78 144.553C256.702 144.687 256.675 144.845 256.705 144.998C256.745 145.149 256.839 145.278 256.969 145.362C257.1 145.446 257.256 145.477 257.408 145.45C256.875 145.665 256.4 146.003 256.021 146.438C255.739 146.869 255.636 147.395 255.734 147.903C255.832 148.411 256.125 148.859 256.547 149.15C256.991 149.409 257.513 149.495 258.016 149.392C258.518 149.289 258.966 149.005 259.275 148.592C259.212 148.818 259.23 149.06 259.326 149.274C259.423 149.488 259.591 149.661 259.801 149.762C261.838 150.875 262.875 149.363 263.153 147.612C263.442 145.708 263.848 144.28 261.793 143.254Z" fill="black"/>
<path d="M252.023 136.796C251.428 136.457 250.737 136.332 250.062 136.443C249.729 136.507 249.426 136.68 249.201 136.937C248.975 137.193 248.841 137.518 248.818 137.86L247.736 137.796C247.611 137.782 247.484 137.789 247.361 137.815C247.214 137.861 247.089 137.961 247.011 138.095C246.932 138.229 246.906 138.388 246.936 138.54C246.976 138.691 247.07 138.821 247.2 138.904C247.33 138.988 247.487 139.019 247.639 138.992C247.106 139.207 246.631 139.545 246.252 139.98C245.97 140.411 245.866 140.937 245.965 141.445C246.063 141.953 246.356 142.401 246.778 142.692C247.222 142.951 247.744 143.037 248.247 142.934C248.749 142.831 249.197 142.547 249.506 142.134C249.443 142.36 249.461 142.602 249.557 142.816C249.654 143.03 249.822 143.203 250.032 143.304C252.069 144.417 253.106 142.905 253.384 141.154C253.673 139.25 254.079 137.822 252.023 136.796Z" fill="#FFE9B3"/>
<path opacity="0.15" d="M252.023 136.796C251.428 136.457 250.737 136.332 250.062 136.443C249.729 136.507 249.426 136.68 249.201 136.937C248.975 137.193 248.841 137.518 248.818 137.86L247.736 137.796C247.611 137.782 247.484 137.789 247.361 137.815C247.214 137.861 247.089 137.961 247.011 138.095C246.932 138.229 246.906 138.388 246.936 138.54C246.976 138.691 247.07 138.821 247.2 138.904C247.33 138.988 247.487 139.019 247.639 138.992C247.106 139.207 246.631 139.545 246.252 139.98C245.97 140.411 245.866 140.937 245.965 141.445C246.063 141.953 246.356 142.401 246.778 142.692C247.222 142.951 247.744 143.037 248.247 142.934C248.749 142.831 249.197 142.547 249.506 142.134C249.443 142.36 249.461 142.602 249.557 142.816C249.654 143.03 249.822 143.203 250.032 143.304C252.069 144.417 253.106 142.905 253.384 141.154C253.673 139.25 254.079 137.822 252.023 136.796Z" fill="black"/>
<path d="M244.509 134.517C243.914 134.178 243.222 134.053 242.547 134.164C242.214 134.227 241.911 134.401 241.686 134.657C241.461 134.914 241.326 135.239 241.304 135.581L240.222 135.516C240.096 135.503 239.97 135.51 239.846 135.535C239.699 135.582 239.575 135.682 239.496 135.816C239.418 135.95 239.391 136.108 239.421 136.261C239.461 136.411 239.556 136.541 239.686 136.625C239.816 136.709 239.972 136.74 240.124 136.713C239.592 136.927 239.117 137.266 238.738 137.701C238.455 138.132 238.352 138.658 238.45 139.166C238.549 139.673 238.841 140.121 239.264 140.413C239.708 140.672 240.23 140.758 240.732 140.655C241.234 140.552 241.682 140.267 241.991 139.854C241.928 140.081 241.946 140.323 242.043 140.537C242.139 140.751 242.307 140.924 242.517 141.024C244.554 142.138 245.591 140.626 245.869 138.874C246.158 136.971 246.564 135.543 244.509 134.517Z" fill="#FFE9B3"/>
<path opacity="0.15" d="M244.509 134.517C243.914 134.178 243.222 134.053 242.547 134.164C242.214 134.227 241.911 134.401 241.686 134.657C241.461 134.914 241.326 135.239 241.304 135.581L240.222 135.516C240.096 135.503 239.97 135.51 239.846 135.535C239.699 135.582 239.575 135.682 239.496 135.816C239.418 135.95 239.391 136.108 239.421 136.261C239.461 136.411 239.556 136.541 239.686 136.625C239.816 136.709 239.972 136.74 240.124 136.713C239.592 136.927 239.117 137.266 238.738 137.701C238.455 138.132 238.352 138.658 238.45 139.166C238.549 139.673 238.841 140.121 239.264 140.413C239.708 140.672 240.23 140.758 240.732 140.655C241.234 140.552 241.682 140.267 241.991 139.854C241.928 140.081 241.946 140.323 242.043 140.537C242.139 140.751 242.307 140.924 242.517 141.024C244.554 142.138 245.591 140.626 245.869 138.874C246.158 136.971 246.564 135.543 244.509 134.517Z" fill="black"/>
<path d="M252.775 132.998C252.18 132.658 251.488 132.533 250.814 132.644C250.48 132.708 250.177 132.881 249.952 133.138C249.727 133.394 249.592 133.719 249.57 134.061L248.488 133.997C248.362 133.984 248.236 133.99 248.112 134.016C247.965 134.062 247.841 134.162 247.762 134.296C247.684 134.43 247.657 134.589 247.688 134.741C247.727 134.892 247.822 135.022 247.952 135.106C248.082 135.189 248.238 135.221 248.39 135.193C247.858 135.408 247.383 135.746 247.004 136.181C246.721 136.612 246.618 137.139 246.716 137.646C246.815 138.154 247.107 138.602 247.53 138.893C247.974 139.152 248.496 139.238 248.998 139.135C249.5 139.033 249.948 138.748 250.258 138.335C250.194 138.561 250.212 138.803 250.309 139.017C250.405 139.232 250.573 139.404 250.784 139.505C252.82 140.618 253.857 139.106 254.135 137.355C254.424 135.452 254.83 134.023 252.775 132.998Z" fill="#FFE9B3"/>
<path opacity="0.15" d="M252.775 132.998C252.18 132.658 251.488 132.533 250.814 132.644C250.48 132.708 250.177 132.881 249.952 133.138C249.727 133.394 249.592 133.719 249.57 134.061L248.488 133.997C248.362 133.984 248.236 133.99 248.112 134.016C247.965 134.062 247.841 134.162 247.762 134.296C247.684 134.43 247.657 134.589 247.688 134.741C247.727 134.892 247.822 135.022 247.952 135.106C248.082 135.189 248.238 135.221 248.39 135.193C247.858 135.408 247.383 135.746 247.004 136.181C246.721 136.612 246.618 137.139 246.716 137.646C246.815 138.154 247.107 138.602 247.53 138.893C247.974 139.152 248.496 139.238 248.998 139.135C249.5 139.033 249.948 138.748 250.258 138.335C250.194 138.561 250.212 138.803 250.309 139.017C250.405 139.232 250.573 139.404 250.784 139.505C252.82 140.618 253.857 139.106 254.135 137.355C254.424 135.452 254.83 134.023 252.775 132.998Z" fill="black"/>
<path d="M255.781 135.277C255.186 134.937 254.494 134.813 253.82 134.924C253.486 134.987 253.183 135.161 252.958 135.417C252.733 135.674 252.598 135.998 252.576 136.341L251.494 136.276C251.368 136.263 251.242 136.269 251.118 136.295C250.971 136.342 250.847 136.442 250.768 136.576C250.69 136.71 250.663 136.868 250.693 137.021C250.733 137.171 250.828 137.301 250.958 137.385C251.088 137.469 251.244 137.5 251.396 137.473C250.864 137.687 250.389 138.026 250.01 138.46C249.727 138.892 249.624 139.418 249.722 139.926C249.821 140.433 250.113 140.881 250.536 141.173C250.98 141.431 251.502 141.517 252.004 141.415C252.506 141.312 252.954 141.027 253.263 140.614C253.2 140.841 253.218 141.082 253.315 141.297C253.411 141.511 253.579 141.684 253.789 141.784C255.826 142.897 256.863 141.385 257.141 139.634C257.43 137.731 257.836 136.303 255.781 135.277Z" fill="#FFE9B3"/>
<path opacity="0.15" d="M255.781 135.277C255.186 134.937 254.494 134.813 253.82 134.924C253.486 134.987 253.183 135.161 252.958 135.417C252.733 135.674 252.598 135.998 252.576 136.341L251.494 136.276C251.368 136.263 251.242 136.269 251.118 136.295C250.971 136.342 250.847 136.442 250.768 136.576C250.69 136.71 250.663 136.868 250.693 137.021C250.733 137.171 250.828 137.301 250.958 137.385C251.088 137.469 251.244 137.5 251.396 137.473C250.864 137.687 250.389 138.026 250.01 138.46C249.727 138.892 249.624 139.418 249.722 139.926C249.821 140.433 250.113 140.881 250.536 141.173C250.98 141.431 251.502 141.517 252.004 141.415C252.506 141.312 252.954 141.027 253.263 140.614C253.2 140.841 253.218 141.082 253.315 141.297C253.411 141.511 253.579 141.684 253.789 141.784C255.826 142.897 256.863 141.385 257.141 139.634C257.43 137.731 257.836 136.303 255.781 135.277Z" fill="black"/>
<path d="M237.37 143.254C236.775 142.915 236.083 142.79 235.409 142.901C235.075 142.964 234.772 143.138 234.547 143.394C234.322 143.651 234.187 143.976 234.165 144.318L233.083 144.253C232.957 144.24 232.831 144.247 232.707 144.272C232.56 144.319 232.436 144.419 232.357 144.553C232.279 144.687 232.252 144.845 232.282 144.998C232.322 145.149 232.417 145.278 232.547 145.362C232.677 145.446 232.833 145.477 232.985 145.45C232.453 145.665 231.978 146.003 231.599 146.438C231.316 146.869 231.213 147.395 231.311 147.903C231.41 148.411 231.702 148.859 232.125 149.15C232.569 149.409 233.091 149.495 233.593 149.392C234.095 149.289 234.543 149.005 234.852 148.592C234.789 148.818 234.807 149.06 234.904 149.274C235 149.488 235.168 149.661 235.378 149.762C237.415 150.875 238.452 149.363 238.73 147.612C239.019 145.708 239.425 144.28 237.37 143.254Z" fill="#FFE9B3"/>
<path opacity="0.15" d="M237.37 143.254C236.775 142.915 236.083 142.79 235.409 142.901C235.075 142.964 234.772 143.138 234.547 143.394C234.322 143.651 234.187 143.976 234.165 144.318L233.083 144.253C232.957 144.24 232.831 144.247 232.707 144.272C232.56 144.319 232.436 144.419 232.357 144.553C232.279 144.687 232.252 144.845 232.282 144.998C232.322 145.149 232.417 145.278 232.547 145.362C232.677 145.446 232.833 145.477 232.985 145.45C232.453 145.665 231.978 146.003 231.599 146.438C231.316 146.869 231.213 147.395 231.311 147.903C231.41 148.411 231.702 148.859 232.125 149.15C232.569 149.409 233.091 149.495 233.593 149.392C234.095 149.289 234.543 149.005 234.852 148.592C234.789 148.818 234.807 149.06 234.904 149.274C235 149.488 235.168 149.661 235.378 149.762C237.415 150.875 238.452 149.363 238.73 147.612C239.019 145.708 239.425 144.28 237.37 143.254Z" fill="black"/>
<path d="M259.162 137.936C258.567 137.596 257.876 137.472 257.201 137.583C256.868 137.646 256.565 137.82 256.339 138.076C256.114 138.333 255.98 138.658 255.957 139L254.875 138.935C254.75 138.922 254.623 138.928 254.5 138.954C254.353 139.001 254.228 139.101 254.15 139.235C254.071 139.369 254.045 139.527 254.075 139.68C254.115 139.83 254.209 139.96 254.339 140.044C254.469 140.128 254.626 140.159 254.778 140.132C254.245 140.346 253.77 140.685 253.391 141.119C253.109 141.551 253.005 142.077 253.104 142.585C253.202 143.092 253.494 143.54 253.917 143.832C254.361 144.09 254.883 144.177 255.385 144.074C255.888 143.971 256.336 143.686 256.645 143.273C256.582 143.5 256.6 143.742 256.696 143.956C256.792 144.17 256.961 144.343 257.171 144.443C259.208 145.556 260.245 144.045 260.523 142.293C260.812 140.39 261.218 138.962 259.162 137.936Z" fill="#FFE9B3"/>
<path opacity="0.15" d="M259.162 137.936C258.567 137.596 257.876 137.472 257.201 137.583C256.868 137.646 256.565 137.82 256.339 138.076C256.114 138.333 255.98 138.658 255.957 139L254.875 138.935C254.75 138.922 254.623 138.928 254.5 138.954C254.353 139.001 254.228 139.101 254.15 139.235C254.071 139.369 254.045 139.527 254.075 139.68C254.115 139.83 254.209 139.96 254.339 140.044C254.469 140.128 254.626 140.159 254.778 140.132C254.245 140.346 253.77 140.685 253.391 141.119C253.109 141.551 253.005 142.077 253.104 142.585C253.202 143.092 253.494 143.54 253.917 143.832C254.361 144.09 254.883 144.177 255.385 144.074C255.888 143.971 256.336 143.686 256.645 143.273C256.582 143.5 256.6 143.742 256.696 143.956C256.792 144.17 256.961 144.343 257.171 144.443C259.208 145.556 260.245 144.045 260.523 142.293C260.812 140.39 261.218 138.962 259.162 137.936Z" fill="black"/>
<path d="M266.301 141.735C265.706 141.395 265.015 141.271 264.34 141.382C264.007 141.445 263.704 141.618 263.478 141.875C263.253 142.131 263.119 142.456 263.096 142.799L262.014 142.734C261.889 142.721 261.762 142.727 261.639 142.753C261.492 142.8 261.367 142.899 261.289 143.033C261.21 143.167 261.184 143.326 261.214 143.478C261.254 143.629 261.348 143.759 261.478 143.843C261.608 143.926 261.765 143.958 261.917 143.931C261.384 144.145 260.909 144.483 260.53 144.918C260.248 145.349 260.144 145.876 260.243 146.383C260.341 146.891 260.633 147.339 261.056 147.631C261.5 147.889 262.022 147.975 262.524 147.872C263.027 147.77 263.474 147.485 263.784 147.072C263.721 147.299 263.739 147.54 263.835 147.754C263.931 147.969 264.1 148.141 264.31 148.242C266.346 149.355 267.383 147.843 267.662 146.092C267.951 144.189 268.357 142.761 266.301 141.735Z" fill="#FFE9B3"/>
<path opacity="0.15" d="M266.301 141.735C265.706 141.395 265.015 141.271 264.34 141.382C264.007 141.445 263.704 141.618 263.478 141.875C263.253 142.131 263.119 142.456 263.096 142.799L262.014 142.734C261.889 142.721 261.762 142.727 261.639 142.753C261.492 142.8 261.367 142.899 261.289 143.033C261.21 143.167 261.184 143.326 261.214 143.478C261.254 143.629 261.348 143.759 261.478 143.843C261.608 143.926 261.765 143.958 261.917 143.931C261.384 144.145 260.909 144.483 260.53 144.918C260.248 145.349 260.144 145.876 260.243 146.383C260.341 146.891 260.633 147.339 261.056 147.631C261.5 147.889 262.022 147.975 262.524 147.872C263.027 147.77 263.474 147.485 263.784 147.072C263.721 147.299 263.739 147.54 263.835 147.754C263.931 147.969 264.1 148.141 264.31 148.242C266.346 149.355 267.383 147.843 267.662 146.092C267.951 144.189 268.357 142.761 266.301 141.735Z" fill="black"/>
<path d="M260.29 133.378C259.695 133.038 259.003 132.913 258.328 133.024C257.995 133.088 257.692 133.261 257.467 133.518C257.242 133.774 257.107 134.099 257.085 134.441L256.003 134.377C255.877 134.364 255.75 134.37 255.627 134.396C255.48 134.442 255.355 134.542 255.277 134.676C255.199 134.81 255.172 134.969 255.202 135.121C255.242 135.272 255.336 135.402 255.467 135.485C255.597 135.569 255.753 135.601 255.905 135.573C255.372 135.788 254.897 136.126 254.518 136.561C254.236 136.992 254.133 137.519 254.231 138.026C254.329 138.534 254.622 138.982 255.044 139.273C255.488 139.532 256.01 139.618 256.513 139.515C257.015 139.412 257.463 139.128 257.772 138.715C257.709 138.941 257.727 139.183 257.823 139.397C257.92 139.611 258.088 139.784 258.298 139.885C260.335 140.998 261.372 139.486 261.65 137.735C261.939 135.832 262.345 134.403 260.29 133.378Z" fill="#FFE9B3"/>
<path opacity="0.15" d="M260.29 133.378C259.695 133.038 259.003 132.913 258.328 133.024C257.995 133.088 257.692 133.261 257.467 133.518C257.242 133.774 257.107 134.099 257.085 134.441L256.003 134.377C255.877 134.364 255.75 134.37 255.627 134.396C255.48 134.442 255.355 134.542 255.277 134.676C255.199 134.81 255.172 134.969 255.202 135.121C255.242 135.272 255.336 135.402 255.467 135.485C255.597 135.569 255.753 135.601 255.905 135.573C255.372 135.788 254.897 136.126 254.518 136.561C254.236 136.992 254.133 137.519 254.231 138.026C254.329 138.534 254.622 138.982 255.044 139.273C255.488 139.532 256.01 139.618 256.513 139.515C257.015 139.412 257.463 139.128 257.772 138.715C257.709 138.941 257.727 139.183 257.823 139.397C257.92 139.611 258.088 139.784 258.298 139.885C260.335 140.998 261.372 139.486 261.65 137.735C261.939 135.832 262.345 134.403 260.29 133.378Z" fill="black"/>
<path d="M265.546 142.525C265.89 141.928 266.023 141.23 265.922 140.546C265.863 140.208 265.694 139.899 265.442 139.669C265.191 139.438 264.87 139.299 264.532 139.273L264.611 138.179C264.63 138.053 264.63 137.925 264.611 137.799C264.593 137.722 264.561 137.649 264.515 137.584C264.47 137.52 264.412 137.465 264.346 137.423C264.279 137.38 264.205 137.352 264.128 137.339C264.05 137.325 263.971 137.328 263.895 137.345C263.818 137.363 263.746 137.396 263.682 137.442C263.618 137.488 263.564 137.546 263.522 137.613C263.48 137.68 263.452 137.755 263.439 137.833C263.426 137.912 263.428 137.992 263.446 138.069C263.239 137.528 262.91 137.044 262.484 136.656C262.06 136.365 261.541 136.254 261.037 136.348C260.533 136.442 260.087 136.733 259.794 137.157C259.533 137.604 259.442 138.131 259.539 138.641C259.636 139.15 259.914 139.606 260.32 139.923C260.096 139.857 259.856 139.873 259.643 139.968C259.43 140.063 259.257 140.232 259.155 140.443C258.028 142.491 259.531 143.554 261.244 143.862C263.104 144.162 264.517 144.592 265.546 142.525Z" fill="#FFE9B3"/>
<path d="M265.546 136.447C265.89 135.85 266.023 135.152 265.922 134.468C265.863 134.13 265.694 133.821 265.442 133.591C265.191 133.36 264.87 133.221 264.532 133.195L264.611 132.101C264.63 131.975 264.63 131.847 264.611 131.721C264.575 131.565 264.48 131.43 264.346 131.345C264.211 131.259 264.049 131.232 263.895 131.267C263.74 131.303 263.606 131.4 263.522 131.535C263.438 131.671 263.41 131.835 263.446 131.991C263.239 131.45 262.91 130.966 262.484 130.578C262.06 130.287 261.541 130.176 261.037 130.27C260.533 130.364 260.087 130.655 259.794 131.079C259.533 131.526 259.442 132.053 259.539 132.563C259.636 133.072 259.914 133.528 260.32 133.845C260.096 133.779 259.856 133.795 259.643 133.89C259.43 133.985 259.257 134.154 259.155 134.365C258.028 136.413 259.531 137.476 261.244 137.784C263.104 138.084 264.517 138.514 265.546 136.447Z" fill="#FFE9B3"/>
<path d="M259.159 144.424C259.503 143.827 259.635 143.129 259.534 142.445C259.475 142.107 259.307 141.799 259.055 141.568C258.803 141.338 258.483 141.199 258.144 141.173L258.223 140.079C258.242 139.953 258.242 139.825 258.223 139.699C258.188 139.543 258.092 139.407 257.958 139.322C257.824 139.237 257.662 139.209 257.507 139.245C257.353 139.281 257.219 139.377 257.135 139.513C257.05 139.648 257.023 139.812 257.058 139.968C256.852 139.428 256.522 138.944 256.096 138.555C255.673 138.264 255.153 138.154 254.649 138.248C254.146 138.341 253.699 138.632 253.406 139.057C253.145 139.503 253.055 140.031 253.152 140.54C253.249 141.049 253.526 141.505 253.932 141.822C253.709 141.756 253.469 141.772 253.256 141.867C253.043 141.963 252.87 142.131 252.767 142.343C251.64 144.39 253.143 145.454 254.857 145.762C256.716 146.062 258.129 146.491 259.159 144.424Z" fill="#FFE9B3"/>
<path d="M266.298 151.262C266.642 150.665 266.774 149.967 266.673 149.283C266.614 148.945 266.446 148.636 266.194 148.406C265.942 148.176 265.622 148.036 265.283 148.01L265.362 146.916C265.381 146.79 265.381 146.662 265.362 146.536C265.327 146.38 265.231 146.245 265.097 146.16C264.963 146.074 264.801 146.047 264.646 146.083C264.492 146.118 264.358 146.215 264.274 146.35C264.189 146.486 264.162 146.65 264.197 146.806C263.991 146.265 263.661 145.781 263.235 145.393C262.812 145.102 262.292 144.991 261.788 145.085C261.285 145.179 260.838 145.47 260.545 145.894C260.284 146.341 260.194 146.869 260.291 147.378C260.388 147.887 260.665 148.343 261.071 148.66C260.847 148.594 260.608 148.61 260.395 148.705C260.182 148.8 260.009 148.969 259.906 149.18C258.779 151.228 260.282 152.292 261.995 152.599C263.855 152.899 265.268 153.329 266.298 151.262Z" fill="#FFE9B3"/>
<path d="M252.771 153.921C253.115 153.324 253.248 152.626 253.147 151.942C253.088 151.604 252.919 151.295 252.667 151.065C252.416 150.835 252.095 150.695 251.757 150.67L251.836 149.575C251.855 149.45 251.855 149.321 251.836 149.196C251.8 149.039 251.705 148.904 251.571 148.819C251.437 148.734 251.274 148.706 251.12 148.742C250.965 148.777 250.831 148.874 250.747 149.009C250.663 149.145 250.635 149.309 250.671 149.465C250.464 148.925 250.135 148.44 249.709 148.052C249.285 147.761 248.766 147.651 248.262 147.744C247.758 147.838 247.312 148.129 247.019 148.554C246.758 149 246.667 149.528 246.764 150.037C246.861 150.546 247.139 151.002 247.545 151.319C247.321 151.253 247.082 151.269 246.868 151.364C246.655 151.46 246.482 151.628 246.38 151.84C245.253 153.887 246.756 154.951 248.469 155.258C250.329 155.558 251.742 155.988 252.771 153.921Z" fill="#FFE9B3"/>
<path d="M249.765 138.346C250.11 137.749 250.242 137.051 250.141 136.367C250.082 136.029 249.913 135.721 249.662 135.49C249.41 135.26 249.089 135.121 248.751 135.095L248.83 134.001C248.849 133.875 248.849 133.747 248.83 133.621C248.794 133.465 248.699 133.329 248.565 133.244C248.431 133.159 248.268 133.131 248.114 133.167C247.96 133.203 247.825 133.299 247.741 133.435C247.657 133.57 247.63 133.734 247.665 133.89C247.458 133.35 247.129 132.866 246.703 132.477C246.28 132.186 245.76 132.076 245.256 132.17C244.753 132.263 244.306 132.554 244.013 132.979C243.752 133.425 243.662 133.953 243.758 134.462C243.855 134.971 244.133 135.427 244.539 135.744C244.315 135.678 244.076 135.694 243.863 135.789C243.649 135.885 243.476 136.053 243.374 136.265C242.247 138.312 243.75 139.376 245.463 139.684C247.323 139.984 248.736 140.413 249.765 138.346Z" fill="#FFE9B3"/>
<path d="M257.656 136.447C258 135.85 258.133 135.152 258.032 134.468C257.972 134.13 257.804 133.821 257.552 133.591C257.3 133.36 256.98 133.221 256.641 133.195L256.72 132.101C256.739 131.975 256.739 131.847 256.72 131.721C256.685 131.565 256.59 131.43 256.455 131.345C256.321 131.259 256.159 131.232 256.004 131.267C255.85 131.303 255.716 131.4 255.632 131.535C255.547 131.671 255.52 131.835 255.555 131.991C255.349 131.45 255.019 130.966 254.594 130.578C254.17 130.287 253.65 130.176 253.147 130.27C252.643 130.364 252.196 130.655 251.903 131.079C251.642 131.526 251.552 132.053 251.649 132.563C251.746 133.072 252.023 133.528 252.429 133.845C252.206 133.779 251.966 133.795 251.753 133.89C251.54 133.985 251.367 134.154 251.265 134.365C250.137 136.413 251.64 137.476 253.354 137.784C255.213 138.084 256.626 138.514 257.656 136.447Z" fill="#FFE9B3"/>
<path d="M241.875 143.665C242.219 143.067 242.352 142.369 242.251 141.685C242.192 141.347 242.023 141.039 241.771 140.808C241.519 140.578 241.199 140.439 240.86 140.413L240.939 139.319C240.958 139.193 240.958 139.065 240.939 138.939C240.904 138.783 240.809 138.647 240.674 138.562C240.54 138.477 240.378 138.449 240.224 138.485C240.069 138.521 239.935 138.617 239.851 138.753C239.767 138.889 239.739 139.053 239.775 139.209C239.568 138.668 239.238 138.184 238.813 137.796C238.389 137.505 237.869 137.394 237.366 137.488C236.862 137.582 236.415 137.872 236.122 138.297C235.862 138.744 235.771 139.271 235.868 139.78C235.965 140.29 236.242 140.746 236.648 141.062C236.425 140.996 236.185 141.012 235.972 141.108C235.759 141.203 235.586 141.371 235.484 141.583C234.356 143.63 235.859 144.694 237.573 145.002C239.433 145.302 240.845 145.731 241.875 143.665Z" fill="#FFE9B3"/>
<path d="M235.889 161.089C237.843 160.93 239.771 160.425 241.732 160.451C244.298 160.485 246.767 161.424 249.104 162.495C249.79 162.763 250.42 163.16 250.96 163.665C251.345 164.114 251.626 164.645 251.781 165.218C251.935 165.792 251.961 166.393 251.854 166.978C251.635 168.147 251.176 169.256 250.509 170.237C249.825 171.335 248.98 172.417 247.789 172.896C247.123 173.128 246.424 173.25 245.719 173.257C242.777 173.42 239.778 173.257 236.987 172.303C235.555 171.809 234.199 171.118 232.797 170.533C228.33 168.664 223.498 167.927 218.752 166.985C218.511 166.956 218.281 166.866 218.083 166.723C217.095 165.861 219.241 162.753 219.744 161.883C220.593 160.406 221.364 160.246 223.084 160.204C227.383 160.094 231.58 161.359 235.889 161.089Z" fill="#A0616A"/>
<path d="M269.319 171.601C267.958 170.924 266.737 169.99 265.388 169.287C263.69 168.404 261.822 167.902 259.914 167.817C258.678 167.76 257.333 167.927 256.435 168.789C255.153 170.02 255.307 172.113 255.728 173.849C256.367 176.452 257.652 179.206 260.121 180.19C261.09 180.518 262.104 180.693 263.126 180.71C267.699 181.029 272.46 181.318 276.698 179.57C277.009 179.473 277.275 179.267 277.449 178.989C277.633 178.609 277.449 178.153 277.262 177.77C276.585 176.395 275.514 173.511 274.207 172.653C272.989 171.828 270.836 172.353 269.319 171.601Z" fill="#A0616A"/>
<path opacity="0.1" d="M280.064 150.913C282.569 154.93 284.628 159.214 286.204 163.688C286.645 164.788 286.899 165.955 286.955 167.141C286.955 168.459 286.501 169.735 286.024 170.981C284.503 174.968 282.739 178.856 280.741 182.621C280.14 183.76 279.452 184.949 278.261 185.576C277.01 186.237 275.469 186.135 274.038 185.956C270.45 185.559 266.893 184.922 263.389 184.049C265.595 184.121 267.586 182.45 268.605 180.63C269.623 178.811 269.848 176.729 270.017 174.697C270.172 173.602 270.126 172.488 269.882 171.411C269.739 170.855 269.466 170.341 269.086 169.915C268.705 169.488 268.228 169.161 267.695 168.96C267.594 167.969 268.529 167.137 269.495 166.681C270.461 166.225 271.558 165.971 272.343 165.287C273.5 164.284 273.666 162.609 273.286 161.188C272.907 159.767 272.08 158.484 271.494 157.12C270.671 155.22 274.917 153.222 275.086 151.171C275.124 150.707 274.8 151.551 275.086 151.171C275.372 150.791 277.145 152.109 277.547 151.931C280.188 150.776 278.603 148.565 280.064 150.913Z" fill="black"/>
<path d="M280.884 150.913C283.388 154.931 285.448 159.215 287.027 163.688C287.469 164.787 287.723 165.955 287.778 167.141C287.778 168.459 287.324 169.735 286.85 170.981C285.328 174.968 283.564 178.855 281.567 182.621C280.966 183.76 280.279 184.949 279.088 185.576C277.836 186.237 276.292 186.135 274.864 185.956C271.276 185.56 267.717 184.923 264.212 184.049C266.414 184.121 268.409 182.45 269.424 180.63C270.438 178.811 270.671 176.729 270.84 174.697C270.993 173.602 270.947 172.489 270.705 171.411C270.561 170.855 270.287 170.342 269.907 169.916C269.526 169.49 269.05 169.162 268.518 168.96C268.413 167.969 269.352 167.137 270.318 166.681C271.284 166.225 272.381 165.971 273.166 165.287C274.32 164.284 274.485 162.609 274.105 161.188C273.726 159.768 272.899 158.484 272.313 157.12C271.493 155.218 271.15 153.14 271.314 151.072C271.322 150.599 271.46 150.137 271.712 149.739C271.992 149.4 272.353 149.138 272.76 148.979C275.413 147.839 279.422 148.565 280.884 150.913Z" fill="#F98A8D"/>
<path opacity="0.1" d="M200.567 147.144C198.128 149.424 195.611 151.832 194.423 154.973C193.777 156.687 193.563 158.533 193.353 160.356C192.999 163.464 192.68 166.791 194.104 169.564C195.682 172.603 198.989 174.233 202.092 175.612C203.165 176.122 204.277 176.543 205.417 176.873C206.911 177.211 208.434 177.399 209.964 177.435L225.628 178.317C223.584 176.235 222.277 172.976 222.555 170.054C222.806 167.445 224.058 165.052 225.316 162.769C225.97 161.591 226.71 160.352 227.916 159.771C222.813 158.631 217.565 158.298 212.361 158.784C212.012 158.814 211.61 158.825 211.38 158.544C211.266 158.368 211.213 158.158 211.23 157.948C211.23 155.589 212.973 153.629 213.695 151.387C214.848 147.794 210.922 149.765 207.39 148.531C203.858 147.296 201.288 143.437 200.567 147.144Z" fill="black"/>
<path d="M199.44 147.144C197.001 149.424 194.484 151.832 193.296 154.973C192.65 156.687 192.436 158.533 192.225 160.356C191.872 163.464 191.553 166.791 192.977 169.564C194.555 172.603 197.861 174.233 200.965 175.612C202.038 176.122 203.15 176.543 204.29 176.873C205.784 177.211 207.307 177.399 208.837 177.435L224.501 178.317C222.457 176.235 221.149 172.976 221.427 170.054C221.679 167.445 222.93 165.052 224.189 162.769C224.843 161.591 225.583 160.352 226.789 159.771C221.686 158.631 216.438 158.298 211.234 158.784C210.884 158.814 210.482 158.825 210.253 158.544C210.139 158.368 210.086 158.158 210.103 157.948C210.103 155.589 211.846 153.629 212.568 151.387C213.721 147.794 211.715 143.41 208.179 142.168C204.643 140.926 200.161 143.437 199.44 147.144Z" fill="#F98A8D"/>
<path d="M238.779 106.365C249.258 106.365 257.753 102.793 257.753 98.3874C257.753 93.9816 249.258 90.4101 238.779 90.4101C228.3 90.4101 219.804 93.9816 219.804 98.3874C219.804 102.793 228.3 106.365 238.779 106.365Z" fill="#2F2E41"/>
<path opacity="0.1" d="M238.403 102.946C229.322 102.946 221.732 100.26 219.868 96.678C219.585 97.2028 219.435 97.7898 219.429 98.3874C219.429 102.794 227.924 106.365 238.403 106.365C248.882 106.365 257.378 102.794 257.378 98.3874C257.372 97.7898 257.221 97.2028 256.938 96.678C255.074 100.26 247.485 102.946 238.403 102.946Z" fill="black"/>
<path d="M264.047 103.747C263.452 103.408 262.76 103.283 262.086 103.394C261.752 103.457 261.449 103.631 261.224 103.888C260.999 104.144 260.864 104.469 260.842 104.811L259.76 104.747C259.634 104.733 259.508 104.74 259.384 104.766C259.237 104.812 259.113 104.912 259.034 105.046C258.956 105.18 258.929 105.338 258.96 105.491C258.999 105.642 259.094 105.772 259.224 105.855C259.354 105.939 259.51 105.97 259.662 105.943C259.13 106.158 258.655 106.496 258.276 106.931C257.993 107.362 257.89 107.888 257.988 108.396C258.087 108.904 258.379 109.352 258.802 109.643C259.246 109.902 259.768 109.988 260.27 109.885C260.772 109.782 261.22 109.498 261.53 109.085C261.466 109.311 261.484 109.553 261.581 109.767C261.677 109.981 261.845 110.154 262.056 110.255C264.092 111.368 265.129 109.856 265.407 108.105C265.696 106.201 266.102 104.773 264.047 103.747Z" fill="#FFE9B3"/>
<path opacity="0.15" d="M264.047 103.747C263.452 103.408 262.76 103.283 262.086 103.394C261.752 103.457 261.449 103.631 261.224 103.888C260.999 104.144 260.864 104.469 260.842 104.811L259.76 104.747C259.634 104.733 259.508 104.74 259.384 104.766C259.237 104.812 259.113 104.912 259.034 105.046C258.956 105.18 258.929 105.338 258.96 105.491C258.999 105.642 259.094 105.772 259.224 105.855C259.354 105.939 259.51 105.97 259.662 105.943C259.13 106.158 258.655 106.496 258.276 106.931C257.993 107.362 257.89 107.888 257.988 108.396C258.087 108.904 258.379 109.352 258.802 109.643C259.246 109.902 259.768 109.988 260.27 109.885C260.772 109.782 261.22 109.498 261.53 109.085C261.466 109.311 261.484 109.553 261.581 109.767C261.677 109.981 261.845 110.154 262.056 110.255C264.092 111.368 265.129 109.856 265.407 108.105C265.696 106.201 266.102 104.773 264.047 103.747Z" fill="black"/>
<path d="M282.082 132.618C281.487 132.278 280.795 132.154 280.121 132.265C279.787 132.328 279.484 132.501 279.259 132.758C279.034 133.014 278.9 133.339 278.877 133.682L277.795 133.617C277.67 133.604 277.543 133.61 277.419 133.636C277.272 133.683 277.148 133.783 277.069 133.916C276.991 134.05 276.964 134.209 276.995 134.362C277.035 134.512 277.129 134.642 277.259 134.726C277.389 134.809 277.546 134.841 277.697 134.814C277.165 135.028 276.69 135.366 276.311 135.801C276.028 136.232 275.925 136.759 276.024 137.266C276.122 137.774 276.414 138.222 276.837 138.514C277.281 138.772 277.803 138.858 278.305 138.755C278.807 138.653 279.255 138.368 279.565 137.955C279.502 138.182 279.52 138.423 279.616 138.637C279.712 138.852 279.88 139.024 280.091 139.125C282.127 140.238 283.164 138.726 283.442 136.975C283.732 135.072 284.137 133.644 282.082 132.618Z" fill="#FFE9B3"/>
<path opacity="0.15" d="M282.082 132.618C281.487 132.278 280.795 132.154 280.121 132.265C279.787 132.328 279.484 132.501 279.259 132.758C279.034 133.014 278.9 133.339 278.877 133.682L277.795 133.617C277.67 133.604 277.543 133.61 277.419 133.636C277.272 133.683 277.148 133.783 277.069 133.916C276.991 134.05 276.964 134.209 276.995 134.362C277.035 134.512 277.129 134.642 277.259 134.726C277.389 134.809 277.546 134.841 277.697 134.814C277.165 135.028 276.69 135.366 276.311 135.801C276.028 136.232 275.925 136.759 276.024 137.266C276.122 137.774 276.414 138.222 276.837 138.514C277.281 138.772 277.803 138.858 278.305 138.755C278.807 138.653 279.255 138.368 279.565 137.955C279.502 138.182 279.52 138.423 279.616 138.637C279.712 138.852 279.88 139.024 280.091 139.125C282.127 140.238 283.164 138.726 283.442 136.975C283.732 135.072 284.137 133.644 282.082 132.618Z" fill="black"/>
<path d="M303.123 163.388C302.528 163.048 301.836 162.923 301.162 163.034C300.829 163.098 300.525 163.271 300.3 163.528C300.075 163.784 299.941 164.109 299.918 164.451L298.836 164.387C298.711 164.374 298.584 164.38 298.46 164.406C298.314 164.452 298.189 164.552 298.111 164.686C298.032 164.82 298.006 164.979 298.036 165.131C298.076 165.282 298.17 165.412 298.3 165.496C298.43 165.579 298.587 165.611 298.738 165.583C298.206 165.798 297.731 166.136 297.352 166.571C297.069 167.002 296.966 167.529 297.065 168.036C297.163 168.544 297.455 168.992 297.878 169.283C298.322 169.542 298.844 169.628 299.346 169.525C299.849 169.422 300.296 169.138 300.606 168.725C300.543 168.951 300.561 169.193 300.657 169.407C300.753 169.621 300.922 169.794 301.132 169.895C303.168 171.008 304.205 169.496 304.483 167.745C304.773 165.842 305.179 164.413 303.123 163.388Z" fill="#FFE9B3"/>
<path opacity="0.15" d="M303.123 163.388C302.528 163.048 301.836 162.923 301.162 163.034C300.829 163.098 300.525 163.271 300.3 163.528C300.075 163.784 299.941 164.109 299.918 164.451L298.836 164.387C298.711 164.374 298.584 164.38 298.46 164.406C298.314 164.452 298.189 164.552 298.111 164.686C298.032 164.82 298.006 164.979 298.036 165.131C298.076 165.282 298.17 165.412 298.3 165.496C298.43 165.579 298.587 165.611 298.738 165.583C298.206 165.798 297.731 166.136 297.352 166.571C297.069 167.002 296.966 167.529 297.065 168.036C297.163 168.544 297.455 168.992 297.878 169.283C298.322 169.542 298.844 169.628 299.346 169.525C299.849 169.422 300.296 169.138 300.606 168.725C300.543 168.951 300.561 169.193 300.657 169.407C300.753 169.621 300.922 169.794 301.132 169.895C303.168 171.008 304.205 169.496 304.483 167.745C304.773 165.842 305.179 164.413 303.123 163.388Z" fill="black"/>
<path d="M270.806 95.4206C271.151 94.8233 271.283 94.1252 271.182 93.4415C271.123 93.1034 270.954 92.7948 270.703 92.5644C270.451 92.334 270.131 92.1949 269.792 92.1689L269.871 91.0748C269.89 90.949 269.89 90.8209 269.871 90.695C269.835 90.5388 269.74 90.4033 269.606 90.3181C269.472 90.233 269.31 90.2053 269.155 90.241C269.001 90.2768 268.867 90.3731 268.782 90.5088C268.698 90.6445 268.671 90.8085 268.706 90.9647C268.5 90.4239 268.17 89.9398 267.744 89.5515C267.321 89.2605 266.801 89.15 266.297 89.2438C265.794 89.3377 265.347 89.6284 265.054 90.053C264.793 90.4995 264.703 91.027 264.8 91.5363C264.896 92.0456 265.174 92.5015 265.58 92.8185C265.356 92.7524 265.117 92.7685 264.904 92.8637C264.69 92.9589 264.517 93.1272 264.415 93.3389C263.288 95.3864 264.791 96.4501 266.504 96.7578C268.364 97.0579 269.777 97.4871 270.806 95.4206Z" fill="#FFE9B3"/>
<path d="M268.552 82.125C268.896 81.5277 269.029 80.8296 268.928 80.1459C268.869 79.8078 268.7 79.4992 268.448 79.2688C268.197 79.0384 267.876 78.8992 267.538 78.8733L267.616 77.7792C267.636 77.6534 267.636 77.5253 267.616 77.3994C267.581 77.2432 267.486 77.1077 267.352 77.0225C267.217 76.9374 267.055 76.9096 266.901 76.9454C266.746 76.9812 266.612 77.0775 266.528 77.2132C266.444 77.3489 266.416 77.5129 266.452 77.6691C266.245 77.1283 265.916 76.6442 265.49 76.2559C265.066 75.9649 264.546 75.8544 264.043 75.9482C263.539 76.0421 263.093 76.3328 262.8 76.7574C262.539 77.2039 262.448 77.7314 262.545 78.2407C262.642 78.75 262.92 79.2059 263.326 79.5229C263.102 79.4568 262.862 79.4729 262.649 79.5681C262.436 79.6633 262.263 79.8316 262.161 80.0433C261.034 82.0908 262.537 83.1545 264.25 83.4622C266.11 83.7623 267.522 84.1915 268.552 82.125Z" fill="#FFE9B3"/>
<path d="M212.196 191.498C211.601 191.159 210.909 191.034 210.234 191.145C209.901 191.208 209.598 191.382 209.373 191.638C209.148 191.895 209.013 192.22 208.991 192.562L207.909 192.497C207.784 192.478 207.657 192.478 207.533 192.497C207.386 192.544 207.261 192.644 207.183 192.778C207.105 192.912 207.078 193.07 207.108 193.223C207.148 193.374 207.243 193.504 207.373 193.587C207.503 193.671 207.659 193.702 207.811 193.675C207.278 193.89 206.803 194.228 206.424 194.663C206.142 195.094 206.039 195.62 206.137 196.128C206.236 196.636 206.528 197.084 206.95 197.375C207.394 197.634 207.916 197.72 208.419 197.617C208.921 197.514 209.369 197.23 209.678 196.817C209.615 197.043 209.633 197.285 209.729 197.499C209.826 197.713 209.994 197.886 210.204 197.987C212.241 199.1 213.278 197.607 213.556 195.837C213.845 193.952 214.251 192.524 212.196 191.498Z" fill="#FFE9B3"/>
<path opacity="0.15" d="M212.196 191.498C211.601 191.159 210.909 191.034 210.234 191.145C209.901 191.208 209.598 191.382 209.373 191.638C209.148 191.895 209.013 192.22 208.991 192.562L207.909 192.497C207.784 192.478 207.657 192.478 207.533 192.497C207.386 192.544 207.261 192.644 207.183 192.778C207.105 192.912 207.078 193.07 207.108 193.223C207.148 193.374 207.243 193.504 207.373 193.587C207.503 193.671 207.659 193.702 207.811 193.675C207.278 193.89 206.803 194.228 206.424 194.663C206.142 195.094 206.039 195.62 206.137 196.128C206.236 196.636 206.528 197.084 206.95 197.375C207.394 197.634 207.916 197.72 208.419 197.617C208.921 197.514 209.369 197.23 209.678 196.817C209.615 197.043 209.633 197.285 209.729 197.499C209.826 197.713 209.994 197.886 210.204 197.987C212.241 199.1 213.278 197.607 213.556 195.837C213.845 193.952 214.251 192.524 212.196 191.498Z" fill="black"/>
<path d="M198.666 190.769C199.01 190.172 199.142 189.474 199.041 188.79C198.982 188.452 198.813 188.143 198.562 187.913C198.31 187.682 197.99 187.543 197.651 187.517L197.73 186.423C197.749 186.297 197.749 186.169 197.73 186.043C197.695 185.887 197.599 185.752 197.465 185.667C197.331 185.581 197.169 185.554 197.014 185.589C196.86 185.625 196.726 185.722 196.641 185.857C196.557 185.993 196.53 186.157 196.565 186.313C196.359 185.772 196.029 185.288 195.603 184.9C195.18 184.609 194.66 184.498 194.156 184.592C193.653 184.686 193.206 184.977 192.913 185.401C192.652 185.848 192.562 186.375 192.659 186.885C192.755 187.394 193.033 187.85 193.439 188.167C193.215 188.101 192.976 188.117 192.763 188.212C192.55 188.307 192.377 188.476 192.274 188.687C191.147 190.735 192.65 191.798 194.363 192.106C196.223 192.406 197.636 192.836 198.666 190.769Z" fill="#FFE9B3"/>
<path d="M216.701 169.876C217.045 169.279 217.178 168.581 217.077 167.897C217.017 167.559 216.849 167.25 216.597 167.02C216.345 166.789 216.025 166.65 215.686 166.624L215.765 165.53C215.784 165.404 215.784 165.276 215.765 165.15C215.73 164.994 215.635 164.859 215.5 164.773C215.366 164.688 215.204 164.661 215.049 164.696C214.895 164.732 214.761 164.828 214.677 164.964C214.592 165.1 214.565 165.264 214.6 165.42C214.394 164.879 214.064 164.395 213.639 164.007C213.215 163.716 212.695 163.605 212.192 163.699C211.688 163.793 211.241 164.084 210.948 164.508C210.687 164.955 210.597 165.482 210.694 165.992C210.791 166.501 211.068 166.957 211.474 167.274C211.251 167.208 211.011 167.224 210.798 167.319C210.585 167.414 210.412 167.583 210.31 167.794C209.182 169.842 210.685 170.905 212.399 171.213C214.258 171.513 215.671 171.942 216.701 169.876Z" fill="#FFE9B3"/>
<path d="M187.833 176.774C184.173 175.829 180.364 174.875 176.666 175.635C175.021 175.973 173.465 176.642 171.864 177.154C167.923 178.389 163.757 178.71 159.676 178.094C155.595 177.478 151.703 175.94 148.291 173.595C144.458 170.917 140.476 167.012 135.937 168.072C134.716 168.36 133.585 169.006 132.337 169.147C129.996 169.416 127.828 167.882 125.506 167.521C121.509 166.902 117.875 169.735 114.802 172.395L98.5963 186.416C97.3677 187.479 96.015 188.885 96.3419 190.48C96.8416 192.824 100.392 193.139 101.305 195.362C101.967 196.953 100.873 198.807 99.4267 199.715C97.9801 200.623 96.2292 200.855 94.606 201.406C92.1535 202.236 89.9553 203.694 88.2251 205.638C86.4948 207.582 85.2914 209.945 84.7317 212.498C84.4462 213.858 84.356 215.271 83.8262 216.555C83.2551 217.953 82.2218 219.1 81.4591 220.399C78.1226 226.059 80.3131 233.569 77.7807 239.64C76.4393 242.861 73.7528 245.976 74.602 249.361C75.376 252.43 78.7087 253.999 81.7409 254.812C82.0978 256.901 81.3652 258.375 79.8622 259.876C92.4681 265.114 105.998 270.463 119.371 267.785C123.958 266.869 128.426 265.012 133.1 265.088C136.418 265.141 139.698 266.174 143.008 265.939C149.993 265.441 156.407 259.405 163.174 261.217C161.133 261.357 160.378 264.373 161.581 266.049C162.783 267.724 164.996 268.26 167.032 268.457C169.069 268.655 171.226 268.67 172.992 269.718C171.654 272.533 166.863 273.517 167.326 276.613C167.495 277.73 168.389 278.577 169.276 279.272C178.387 286.326 190.937 285.65 202.34 286.87C210.749 287.758 218.993 289.836 227.375 290.946C240.767 292.712 254.342 291.99 267.823 291.261C270.269 291.128 273.012 290.854 274.586 288.955C276.675 286.425 275.514 282.676 275.251 279.394C274.229 266.55 288.124 257.71 292.017 245.441C293.52 240.65 293.456 235.503 293.185 230.477C292.58 219.142 290.826 207.183 283.679 198.431C277.795 191.213 268.999 187.149 260.241 184.171C254.665 182.271 248.822 180.71 242.957 181.268C233.113 182.207 223.167 189.003 214.078 185.067C211.673 184.026 209.626 182.305 207.341 181.021C201.337 177.591 194.525 178.503 187.833 176.774Z" fill="#00B0FF"/>
<g opacity="0.1">
<path opacity="0.1" d="M238.67 281.054C230.287 279.944 222.059 277.878 213.635 276.978C202.22 275.77 189.67 276.446 180.57 269.38C179.683 268.693 178.789 267.861 178.62 266.721C178.158 263.633 182.949 262.641 184.286 259.826C182.52 258.778 180.367 258.766 178.327 258.565C176.287 258.364 174.077 257.832 172.875 256.157C171.673 254.482 172.428 251.465 174.468 251.325C167.705 249.513 161.288 255.549 154.303 256.047C150.992 256.282 147.712 255.249 144.395 255.196C139.72 255.12 135.253 256.977 130.665 257.893C117.293 260.552 103.766 255.234 91.1568 249.984C92.6409 248.464 93.3811 247.009 93.0355 244.92C90.0108 244.107 86.678 242.538 85.8965 239.469C85.0474 236.084 87.7339 232.969 89.0752 229.748C91.6077 223.67 89.4171 216.167 92.7537 210.507C93.5051 209.208 94.5497 208.061 95.1208 206.663C95.6431 205.379 95.7407 203.966 96.0263 202.606C96.1494 202.01 96.3126 201.424 96.5148 200.851C95.8835 201.026 95.2448 201.185 94.6361 201.39C92.1836 202.221 89.9854 203.679 88.2551 205.623C86.5249 207.566 85.3214 209.93 84.7618 212.483C84.4762 213.843 84.3861 215.256 83.8563 216.54C83.2852 217.938 82.2519 219.085 81.4892 220.384C78.1526 226.044 80.3432 233.554 77.8107 239.625C76.4694 242.846 73.7829 245.961 74.632 249.346C75.406 252.415 78.7388 253.984 81.771 254.797C82.1279 256.886 81.3952 258.36 79.8923 259.861C92.5019 265.099 106.028 270.448 119.401 267.77C123.988 266.854 128.456 264.996 133.13 265.072C136.448 265.126 139.728 266.159 143.038 265.923C150.023 265.426 156.437 259.389 163.204 261.201C161.164 261.342 160.408 264.358 161.611 266.033C162.813 267.709 165.026 268.244 167.063 268.442C169.099 268.639 171.256 268.655 173.022 269.703C171.684 272.518 166.893 273.502 167.356 276.598C167.525 277.715 168.419 278.562 169.306 279.257C178.417 286.311 190.967 285.635 202.37 286.854C210.779 287.743 219.023 289.821 227.405 290.93C240.797 292.697 254.372 291.975 267.853 291.246C270.299 291.113 273.042 290.839 274.616 288.94C276.251 286.957 275.894 284.229 275.537 281.559C263.228 282.205 250.87 282.664 238.67 281.054Z" fill="black"/>
<path opacity="0.1" d="M100.764 194.511C102.251 193.173 103.994 192.159 105.886 191.533C107.509 191.001 109.267 190.746 110.706 189.842C112.145 188.938 113.25 187.08 112.585 185.489C111.672 183.282 108.121 182.951 107.621 180.607C107.392 179.529 107.937 178.537 108.696 177.679L98.5926 186.416C97.3639 187.479 96.0113 188.885 96.3382 190.48C96.7778 192.486 99.4304 193.022 100.764 194.511Z" fill="black"/>
</g>
<path d="M134.791 186.97C135.135 186.373 135.268 185.675 135.166 184.991C135.107 184.653 134.939 184.345 134.687 184.114C134.435 183.884 134.115 183.745 133.776 183.719L133.855 182.625C133.868 182.498 133.862 182.37 133.836 182.245C133.801 182.088 133.706 181.953 133.572 181.868C133.437 181.783 133.275 181.755 133.121 181.791C132.966 181.826 132.832 181.923 132.748 182.059C132.664 182.194 132.636 182.358 132.672 182.514C132.465 181.974 132.136 181.489 131.71 181.101C131.286 180.81 130.766 180.7 130.263 180.793C129.759 180.887 129.313 181.178 129.02 181.603C128.759 182.049 128.668 182.577 128.765 183.086C128.862 183.595 129.139 184.051 129.546 184.368C129.322 184.302 129.082 184.318 128.869 184.413C128.656 184.509 128.483 184.677 128.381 184.889C127.254 186.936 128.756 188 130.47 188.307C132.348 188.608 133.761 189.037 134.791 186.97Z" fill="#FFE9B3"/>
<path d="M189.648 260.666C189.992 260.069 190.125 259.37 190.024 258.687C189.965 258.349 189.796 258.04 189.544 257.81C189.292 257.579 188.972 257.44 188.633 257.414L188.712 256.32C188.731 256.194 188.731 256.066 188.712 255.94C188.677 255.784 188.582 255.649 188.447 255.563C188.313 255.478 188.151 255.451 187.997 255.486C187.842 255.522 187.708 255.618 187.624 255.754C187.54 255.89 187.512 256.054 187.548 256.21C187.341 255.669 187.011 255.185 186.586 254.797C186.162 254.506 185.642 254.395 185.139 254.489C184.635 254.583 184.188 254.874 183.895 255.298C183.635 255.745 183.544 256.272 183.641 256.782C183.738 257.291 184.015 257.747 184.421 258.064C184.198 257.998 183.958 258.014 183.745 258.109C183.532 258.204 183.359 258.373 183.257 258.584C182.129 260.632 183.632 261.695 185.346 262.003C187.206 262.303 188.618 262.732 189.648 260.666Z" fill="#FFE9B3"/>
<path d="M227.221 188.11C227.566 187.513 227.698 186.814 227.597 186.131C227.538 185.793 227.369 185.484 227.118 185.254C226.866 185.023 226.545 184.884 226.207 184.858L226.286 183.764C226.305 183.638 226.305 183.51 226.286 183.384C226.25 183.228 226.155 183.093 226.021 183.007C225.887 182.922 225.724 182.895 225.57 182.93C225.415 182.966 225.281 183.062 225.197 183.198C225.113 183.334 225.086 183.498 225.121 183.654C224.914 183.113 224.585 182.629 224.159 182.241C223.736 181.95 223.216 181.839 222.712 181.933C222.209 182.027 221.762 182.318 221.469 182.742C221.208 183.189 221.118 183.716 221.214 184.226C221.311 184.735 221.589 185.191 221.995 185.508C221.771 185.442 221.532 185.458 221.318 185.553C221.105 185.648 220.932 185.817 220.83 186.028C219.703 188.076 221.206 189.139 222.919 189.447C224.779 189.747 226.192 190.176 227.221 188.11Z" fill="#FFE9B3"/>
<path d="M234.289 187.274C234.913 186.994 235.425 186.508 235.739 185.895C235.889 185.588 235.934 185.239 235.866 184.903C235.798 184.568 235.621 184.264 235.363 184.041L236.059 183.198C236.148 183.102 236.222 182.991 236.276 182.871C236.339 182.724 236.34 182.557 236.281 182.408C236.222 182.26 236.107 182.14 235.961 182.078C235.815 182.015 235.65 182.013 235.503 182.073C235.356 182.132 235.238 182.249 235.176 182.397C235.322 181.837 235.336 181.25 235.217 180.683C235.043 180.196 234.685 179.798 234.222 179.575C233.76 179.352 233.229 179.323 232.745 179.494C232.275 179.701 231.896 180.074 231.679 180.544C231.463 181.013 231.423 181.547 231.569 182.043C231.426 181.858 231.223 181.728 230.996 181.678C230.768 181.628 230.531 181.661 230.325 181.77C228.228 182.761 228.822 184.501 230.039 185.77C231.354 187.156 232.249 188.338 234.289 187.274Z" fill="#FFE9B3"/>
<path d="M152.83 189.219C152.235 188.879 151.543 188.755 150.868 188.866C150.535 188.929 150.232 189.103 150.007 189.359C149.782 189.616 149.647 189.941 149.625 190.283L148.543 190.218C148.418 190.199 148.291 190.199 148.167 190.218C148.02 190.265 147.895 190.365 147.817 190.499C147.739 190.633 147.712 190.791 147.742 190.944C147.782 191.094 147.877 191.224 148.007 191.308C148.137 191.392 148.293 191.423 148.445 191.396C147.912 191.61 147.437 191.949 147.058 192.384C146.776 192.815 146.673 193.341 146.771 193.849C146.87 194.356 147.162 194.804 147.585 195.096C148.028 195.355 148.551 195.441 149.053 195.338C149.555 195.235 150.003 194.95 150.312 194.537C150.249 194.764 150.267 195.006 150.364 195.22C150.46 195.434 150.628 195.607 150.838 195.707C152.875 196.82 153.912 195.328 154.19 193.557C154.479 191.673 154.885 190.245 152.83 189.219Z" fill="#FFE9B3"/>
<path opacity="0.15" d="M152.83 189.219C152.235 188.879 151.543 188.755 150.868 188.866C150.535 188.929 150.232 189.103 150.007 189.359C149.782 189.616 149.647 189.941 149.625 190.283L148.543 190.218C148.418 190.199 148.291 190.199 148.167 190.218C148.02 190.265 147.895 190.365 147.817 190.499C147.739 190.633 147.712 190.791 147.742 190.944C147.782 191.094 147.877 191.224 148.007 191.308C148.137 191.392 148.293 191.423 148.445 191.396C147.912 191.61 147.437 191.949 147.058 192.384C146.776 192.815 146.673 193.341 146.771 193.849C146.87 194.356 147.162 194.804 147.585 195.096C148.028 195.355 148.551 195.441 149.053 195.338C149.555 195.235 150.003 194.95 150.312 194.537C150.249 194.764 150.267 195.006 150.364 195.22C150.46 195.434 150.628 195.607 150.838 195.707C152.875 196.82 153.912 195.328 154.19 193.557C154.479 191.673 154.885 190.245 152.83 189.219Z" fill="black"/>
<path d="M186.285 217.478C186.4 216.798 186.287 216.098 185.962 215.491C185.792 215.194 185.528 214.962 185.213 214.834C184.898 214.705 184.549 214.686 184.222 214.781L183.922 213.725C183.892 213.591 183.841 213.463 183.771 213.345C183.685 213.21 183.549 213.116 183.393 213.083C183.238 213.05 183.076 213.081 182.943 213.168C182.81 213.256 182.717 213.393 182.684 213.551C182.651 213.708 182.682 213.871 182.768 214.006C182.392 213.568 181.918 213.227 181.386 213.011C180.888 212.886 180.363 212.963 179.922 213.227C179.481 213.491 179.161 213.919 179.03 214.42C178.937 214.93 179.032 215.456 179.296 215.9C179.561 216.345 179.976 216.676 180.465 216.832C180.233 216.848 180.013 216.946 179.845 217.109C179.678 217.273 179.572 217.491 179.548 217.725C179.172 220.038 180.946 220.521 182.671 220.202C184.549 219.856 186.015 219.757 186.285 217.478Z" fill="#FFE9B3"/>
<path opacity="0.15" d="M186.285 217.478C186.4 216.798 186.287 216.098 185.962 215.491C185.792 215.194 185.528 214.962 185.213 214.834C184.898 214.705 184.549 214.686 184.222 214.781L183.922 213.725C183.892 213.591 183.841 213.463 183.771 213.345C183.685 213.21 183.549 213.116 183.393 213.083C183.238 213.05 183.076 213.081 182.943 213.168C182.81 213.256 182.717 213.393 182.684 213.551C182.651 213.708 182.682 213.871 182.768 214.006C182.392 213.568 181.918 213.227 181.386 213.011C180.888 212.886 180.363 212.963 179.922 213.227C179.481 213.491 179.161 213.919 179.03 214.42C178.937 214.93 179.032 215.456 179.296 215.9C179.561 216.345 179.976 216.676 180.465 216.832C180.233 216.848 180.013 216.946 179.845 217.109C179.678 217.273 179.572 217.491 179.548 217.725C179.172 220.038 180.946 220.521 182.671 220.202C184.549 219.856 186.015 219.757 186.285 217.478Z" fill="black"/>
<path d="M231.373 182.909C231.489 182.229 231.375 181.53 231.05 180.923C230.88 180.625 230.616 180.394 230.301 180.265C229.986 180.136 229.637 180.118 229.31 180.212L229.01 179.156C228.98 179.022 228.929 178.894 228.86 178.776C228.817 178.71 228.761 178.652 228.696 178.608C228.631 178.563 228.558 178.531 228.481 178.515C228.405 178.498 228.325 178.497 228.248 178.512C228.171 178.527 228.097 178.556 228.031 178.6C227.965 178.643 227.908 178.699 227.864 178.765C227.82 178.83 227.788 178.904 227.772 178.982C227.756 179.06 227.755 179.14 227.769 179.218C227.784 179.296 227.813 179.371 227.856 179.437C227.48 179 227.006 178.659 226.474 178.442C225.977 178.317 225.451 178.395 225.01 178.659C224.569 178.922 224.249 179.351 224.118 179.851C224.025 180.361 224.12 180.888 224.384 181.332C224.649 181.776 225.064 182.107 225.553 182.264C225.321 182.279 225.101 182.378 224.934 182.541C224.766 182.704 224.661 182.922 224.636 183.156C224.261 185.47 226.034 185.952 227.759 185.633C229.637 185.287 231.103 185.189 231.373 182.909Z" fill="#FFE9B3"/>
<path opacity="0.15" d="M231.373 182.909C231.489 182.229 231.375 181.53 231.05 180.923C230.88 180.625 230.616 180.394 230.301 180.265C229.986 180.136 229.637 180.118 229.31 180.212L229.01 179.156C228.98 179.022 228.929 178.894 228.86 178.776C228.817 178.71 228.761 178.652 228.696 178.608C228.631 178.563 228.558 178.531 228.481 178.515C228.405 178.498 228.325 178.497 228.248 178.512C228.171 178.527 228.097 178.556 228.031 178.6C227.965 178.643 227.908 178.699 227.864 178.765C227.82 178.83 227.788 178.904 227.772 178.982C227.756 179.06 227.755 179.14 227.769 179.218C227.784 179.296 227.813 179.371 227.856 179.437C227.48 179 227.006 178.659 226.474 178.442C225.977 178.317 225.451 178.395 225.01 178.659C224.569 178.922 224.249 179.351 224.118 179.851C224.025 180.361 224.12 180.888 224.384 181.332C224.649 181.776 225.064 182.107 225.553 182.264C225.321 182.279 225.101 182.378 224.934 182.541C224.766 182.704 224.661 182.922 224.636 183.156C224.261 185.47 226.034 185.952 227.759 185.633C229.637 185.287 231.103 185.189 231.373 182.909Z" fill="black"/>
</svg>
