<svg width="21" height="27" viewBox="0 0 21 27" fill="none" xmlns="http://www.w3.org/2000/svg">
<path d="M19.7424 12.6564C20.018 12.4972 20.1733 12.1962 20.1121 11.8488L19.9427 10.8806C19.8719 10.4803 19.5354 10.1399 19.1316 10.01L18.5979 4.088C18.5108 3.12156 17.7242 2.33056 16.8505 2.33056H16.0394V1.62488C16.0394 0.731063 15.3267 0 14.4552 0H5.73844C4.86606 0 4.1525 0.731063 4.1525 1.62488V2.33056H3.34225C2.46813 2.33056 1.6815 3.12156 1.59488 4.088L1.06375 9.99075C0.628876 10.1023 0.259189 10.4576 0.183939 10.8806L0.0128762 11.8488C-0.0518738 12.2238 0.132751 12.5471 0.450376 12.6932V15.3961C0.136251 15.8865 0.00587617 16.5502 0.136689 17.2799L0.323501 18.3326C0.541814 19.5541 1.42206 20.594 2.43181 20.9366V23.0046H2.42744C2.01663 23.0046 1.60931 23.2894 1.48069 23.6661L0.908001 25.3352C0.831438 25.5614 0.863376 25.7932 0.996813 25.9713C1.13069 26.1485 1.34681 26.25 1.59094 26.25H6.60994C6.85538 26.25 7.0715 26.1481 7.2045 25.9696C7.33706 25.7915 7.369 25.5592 7.29156 25.333L6.71888 23.6648C6.58894 23.2881 6.18206 23.0038 5.773 23.0038H5.76863V21.056H14.4232V23.0038H14.4189C14.0103 23.0038 13.6038 23.2877 13.4726 23.6652L12.9003 25.333C12.8233 25.5592 12.8548 25.7911 12.9874 25.9696C13.1213 26.1481 13.3383 26.25 13.5837 26.25H18.6018C18.8468 26.25 19.0634 26.1481 19.1959 25.9696C19.3289 25.7911 19.3609 25.5592 19.283 25.333L18.7112 23.6648C18.5813 23.2881 18.1739 23.0038 17.7649 23.0038H17.7601V20.9357C18.7694 20.5931 19.6501 19.5532 19.8679 18.3317L20.0565 17.2791C20.1869 16.5493 20.0561 15.8856 19.7419 15.3947V12.6564H19.7424ZM17.2399 12.7781H18.9081V14.6869C18.69 14.5985 18.4569 14.5535 18.2216 14.5543H17.2403V12.7781H17.2399ZM1.28513 12.7781H2.95331V14.5548H1.97113C1.73587 14.5538 1.50269 14.5989 1.28469 14.6873V12.7781H1.28513ZM14.3594 4.0635C14.3572 4.09281 14.3602 4.12125 14.3563 4.151L13.6134 10.0463C13.5058 10.8994 12.8334 11.6209 12.1456 11.6209H8.048C7.35938 11.6209 6.68694 10.8999 6.58019 10.0463L5.836 4.151C5.8325 4.12125 5.83556 4.09281 5.83294 4.0635H14.3594V4.0635ZM2.42613 4.15756C2.47469 3.61506 2.903 3.13862 3.34225 3.13862H4.31438C4.45847 3.44436 4.6949 3.69716 4.99031 3.86138C4.98725 3.98869 4.99075 4.11775 5.00738 4.249L5.75156 10.1443C5.9095 11.4039 6.93938 12.4285 8.04756 12.4285H12.1452C13.2521 12.4285 14.2824 11.4039 14.4412 10.1443L15.1841 4.249C15.2007 4.11819 15.2042 3.98913 15.2016 3.86138C15.4968 3.69701 15.733 3.44425 15.8771 3.13862H16.8501C17.2893 3.13862 17.7172 3.61506 17.7662 4.158L18.2881 9.95094H17.2946C16.749 9.95094 16.2284 10.3696 16.1383 10.8806L15.9667 11.8488C15.9011 12.2238 16.0862 12.5471 16.4047 12.6936V14.5548H3.78763V12.6564C4.06281 12.4972 4.21856 12.1962 4.15775 11.8488L3.98844 10.8806C3.89744 10.3696 3.37769 9.95094 2.83125 9.95094H1.90506L2.42613 4.15756V4.15756ZM4.93519 23.0042H3.267V21.0564H4.93519V23.0042ZM15.2576 23.0042V21.0564H16.9262V23.0042H15.2576Z" fill="black"/>
</svg>
