<svg width="32" height="32" viewBox="0 0 32 32" fill="none" xmlns="http://www.w3.org/2000/svg">
<path d="M27.0625 15.4645C27.3775 15.2825 27.555 14.9385 27.485 14.5415L27.2915 13.435C27.2105 12.9775 26.826 12.5885 26.3645 12.44L25.7545 5.672C25.655 4.5675 24.756 3.6635 23.7575 3.6635H22.8305V2.857C22.8305 1.8355 22.016 1 21.02 1H11.058C10.061 1 9.2455 1.8355 9.2455 2.857V3.6635H8.3195C7.3205 3.6635 6.4215 4.5675 6.3225 5.672L5.7155 12.418C5.2185 12.5455 4.796 12.9515 4.71 13.435L4.5145 14.5415C4.4405 14.97 4.6515 15.3395 5.0145 15.5065V18.5955C4.6555 19.156 4.5065 19.9145 4.656 20.7485L4.8695 21.9515C5.119 23.3475 6.125 24.536 7.279 24.9275V27.291H7.274C6.8045 27.291 6.339 27.6165 6.192 28.047L5.5375 29.9545C5.45 30.213 5.4865 30.478 5.639 30.6815C5.792 30.884 6.039 31 6.318 31H12.054C12.3345 31 12.5815 30.8835 12.7335 30.6795C12.885 30.476 12.9215 30.2105 12.833 29.952L12.1785 28.0455C12.03 27.615 11.565 27.29 11.0975 27.29H11.0925V25.064H20.9835V27.29H20.9785C20.5115 27.29 20.047 27.6145 19.897 28.046L19.243 29.952C19.155 30.2105 19.191 30.4755 19.3425 30.6795C19.4955 30.8835 19.7435 31 20.024 31H25.759C26.039 31 26.2865 30.8835 26.438 30.6795C26.59 30.4755 26.6265 30.2105 26.5375 29.952L25.884 28.0455C25.7355 27.615 25.27 27.29 24.8025 27.29H24.797V24.9265C25.9505 24.535 26.957 23.3465 27.206 21.9505L27.4215 20.7475C27.5705 19.9135 27.421 19.155 27.062 18.594V15.4645H27.0625ZM24.2025 15.6035H26.109V17.785C25.8598 17.6841 25.5934 17.6326 25.3245 17.6335H24.203V15.6035H24.2025ZM5.9685 15.6035H7.875V17.634H6.7525C6.48363 17.6329 6.21714 17.6844 5.968 17.7855V15.6035H5.9685ZM20.9105 5.644C20.908 5.6775 20.9115 5.71 20.907 5.744L20.058 12.4815C19.935 13.4565 19.1665 14.281 18.3805 14.281H13.6975C12.9105 14.281 12.142 13.457 12.02 12.4815L11.1695 5.744C11.1655 5.71 11.169 5.6775 11.166 5.644H20.9105V5.644ZM7.2725 5.7515C7.328 5.1315 7.8175 4.587 8.3195 4.587H9.4305C9.59518 4.93641 9.86538 5.22532 10.203 5.413C10.1995 5.5585 10.2035 5.706 10.2225 5.856L11.073 12.5935C11.2535 14.033 12.4305 15.204 13.697 15.204H18.38C19.645 15.204 20.8225 14.033 21.004 12.5935L21.853 5.856C21.872 5.7065 21.876 5.559 21.873 5.413C22.2104 5.22516 22.4804 4.93628 22.645 4.587H23.757C24.259 4.587 24.748 5.1315 24.804 5.752L25.4005 12.3725H24.265C23.6415 12.3725 23.0465 12.851 22.9435 13.435L22.7475 14.5415C22.6725 14.97 22.884 15.3395 23.248 15.507V17.634H8.8285V15.4645C9.143 15.2825 9.321 14.9385 9.2515 14.5415L9.058 13.435C8.954 12.851 8.36 12.3725 7.7355 12.3725H6.677L7.2725 5.7515V5.7515ZM10.14 27.2905H8.2335V25.0645H10.14V27.2905ZM21.937 27.2905V25.0645H23.844V27.2905H21.937Z" fill="#FF0000"/>
</svg>
